<svg xmlns="http://www.w3.org/2000/svg" width="1200" height="850" viewBox="0 0 1200 850"><style>text{font-family:Arial,sans-serif;fill:#252525}.t{font-size:22px;font-weight:bold}.h{font-size:14px;font-weight:bold}.n{font-size:11px}.d{stroke:#38424b;stroke-width:1.3;fill:none}.o{stroke:#202020;stroke-width:2;fill:#eee8df}.g{fill:#353535}.b{fill:#faf7f0;stroke:#303030;stroke-width:1.5}.a{stroke:#c57618;stroke-width:3;fill:none}.x{stroke:#c33;stroke-width:1.2;fill:none}</style><rect width="1200" height="850" fill="white"/><text x="45" y="48" class="t">T1 DIMENSIONED DRAWING</text><text x="45" y="70" class="n">SignalKey TILE T1 · 128 × 108 × 52 mm integration proposal · dimensions in mm · digital study only</text>
<text x="70" y="115" class="h">TOP VIEW — white housing / broad button / light guide</text>
<rect x="100" y="145" width="512" height="432" rx="72" class="o"/><rect x="148" y="193" width="416" height="336" rx="60" class="b"/>
<path d="M510 218 h38" class="a"/><text x="490" y="185" class="n">11 × 2.2 light feature</text>
<line x1="100" y1="125" x2="612" y2="125" class="d"/><path d="M100 120v10m512-10v10" class="d"/><text x="330" y="115" class="h">128</text>
<line x1="75" y1="145" x2="75" y2="577" class="d"/><path d="M70 145h10m-10 432h10" class="d"/><text x="45" y="370" class="h" transform="rotate(-90 45 370)">108</text>
<text x="210" y="370" class="h">104 × 84 cap</text><text x="205" y="390" class="n">1.2 nominal perimeter clearance</text>
<text x="700" y="115" class="h">SIDE VIEW — low visual mass, actual P3 depth</text>
<path d="M720 550 q0 25 32 25 h430 q32 0 32-25 v-145 q0-38-38-38H758 q-38 0-38 38z" class="o"/><rect x="728" y="548" width="478" height="28" rx="10" class="g"/><path d="M785 368 q0-22 24-22 h315 q24 0 24 22" class="b"/>
<line x1="670" y1="367" x2="670" y2="575" class="d"/><path d="M665 367h10m-10 208h10" class="d"/><text x="650" y="480" class="h" transform="rotate(-90 650 480)">52</text>
<text x="770" y="610" class="n">Graphite base: 3.2 high; 1.0 reveal. White wall: 2.4 nominal.</text>
<text x="70" y="665" class="h">REAR VIEW — connector datum provisional</text><rect x="100" y="690" width="512" height="72" rx="18" class="o"/><rect x="332" y="714" width="48" height="24" rx="5" class="g"/><text x="280" y="785" class="n">12 × 6 rear Micro-USB envelope; measure actual Pico H centerline and plug shell before cutting production tooling.</text>
<text x="700" y="665" class="h">UNDERSIDE — serviceable fasteners</text><rect x="720" y="690" width="480" height="72" rx="18" class="g"/><circle cx="765" cy="713" r="8" class="b"/><circle cx="1155" cy="713" r="8" class="b"/><circle cx="765" cy="742" r="8" class="b"/><circle cx="1155" cy="742" r="8" class="b"/><text x="815" y="785" class="n">Four M2.5 × 8 screws from below; four feet outside screw locations.</text>
<line x1="45" y1="810" x2="1155" y2="810" class="d"/><text x="45" y="833" class="n">Do not manufacture from this illustration alone. Refer to native parametric source, BOM, inspection record and measured component data.</text></svg>