  0
SECTION
  2
BLOCKS
  0
ENDSEC
  0
SECTION
  2
ENTITIES
  0
LINE
  8
0
 10
-90
 20
-50
 11
-89.9893
 21
-50.327
  0
LINE
  8
0
 10
-89.9893
 20
-50.327
 11
-89.9572
 21
-50.6526
  0
LINE
  8
0
 10
-89.9572
 20
-50.6526
 11
-89.9039
 21
-50.9754
  0
LINE
  8
0
 10
-89.9039
 20
-50.9754
 11
-89.8296
 21
-51.2941
  0
LINE
  8
0
 10
-89.8296
 20
-51.2941
 11
-89.7346
 21
-51.6072
  0
LINE
  8
0
 10
-89.7346
 20
-51.6072
 11
-89.6194
 21
-51.9134
  0
LINE
  8
0
 10
-89.6194
 20
-51.9134
 11
-89.4844
 21
-52.2114
  0
LINE
  8
0
 10
-89.4844
 20
-52.2114
 11
-89.3301
 21
-52.5
  0
LINE
  8
0
 10
-89.3301
 20
-52.5
 11
-89.1573
 21
-52.7778
  0
LINE
  8
0
 10
-89.1573
 20
-52.7778
 11
-88.9668
 21
-53.0438
  0
LINE
  8
0
 10
-88.9668
 20
-53.0438
 11
-88.7592
 21
-53.2967
  0
LINE
  8
0
 10
-88.7592
 20
-53.2967
 11
-88.5355
 21
-53.5355
  0
LINE
  8
0
 10
-88.5355
 20
-53.5355
 11
-88.2967
 21
-53.7592
  0
LINE
  8
0
 10
-88.2967
 20
-53.7592
 11
-88.0438
 21
-53.9668
  0
LINE
  8
0
 10
-88.0438
 20
-53.9668
 11
-87.7778
 21
-54.1573
  0
LINE
  8
0
 10
-87.7778
 20
-54.1573
 11
-87.5
 21
-54.3301
  0
LINE
  8
0
 10
-87.5
 20
-54.3301
 11
-87.2114
 21
-54.4844
  0
LINE
  8
0
 10
-87.2114
 20
-54.4844
 11
-86.9134
 21
-54.6194
  0
LINE
  8
0
 10
-86.9134
 20
-54.6194
 11
-86.6072
 21
-54.7346
  0
LINE
  8
0
 10
-86.6072
 20
-54.7346
 11
-86.2941
 21
-54.8296
  0
LINE
  8
0
 10
-86.2941
 20
-54.8296
 11
-85.9754
 21
-54.9039
  0
LINE
  8
0
 10
-85.9754
 20
-54.9039
 11
-85.6526
 21
-54.9572
  0
LINE
  8
0
 10
-85.6526
 20
-54.9572
 11
-85.327
 21
-54.9893
  0
LINE
  8
0
 10
-85.327
 20
-54.9893
 11
-85
 21
-55
  0
LINE
  8
0
 10
-85
 20
-55
 11
85
 21
-55
  0
LINE
  8
0
 10
85
 20
-55
 11
85.327
 21
-54.9893
  0
LINE
  8
0
 10
85.327
 20
-54.9893
 11
85.6526
 21
-54.9572
  0
LINE
  8
0
 10
85.6526
 20
-54.9572
 11
85.9754
 21
-54.9039
  0
LINE
  8
0
 10
85.9754
 20
-54.9039
 11
86.2941
 21
-54.8296
  0
LINE
  8
0
 10
86.2941
 20
-54.8296
 11
86.6072
 21
-54.7346
  0
LINE
  8
0
 10
86.6072
 20
-54.7346
 11
86.9134
 21
-54.6194
  0
LINE
  8
0
 10
86.9134
 20
-54.6194
 11
87.2114
 21
-54.4844
  0
LINE
  8
0
 10
87.2114
 20
-54.4844
 11
87.5
 21
-54.3301
  0
LINE
  8
0
 10
87.5
 20
-54.3301
 11
87.7778
 21
-54.1573
  0
LINE
  8
0
 10
87.7778
 20
-54.1573
 11
88.0438
 21
-53.9668
  0
LINE
  8
0
 10
88.0438
 20
-53.9668
 11
88.2967
 21
-53.7592
  0
LINE
  8
0
 10
88.2967
 20
-53.7592
 11
88.5355
 21
-53.5355
  0
LINE
  8
0
 10
88.5355
 20
-53.5355
 11
88.7592
 21
-53.2967
  0
LINE
  8
0
 10
88.7592
 20
-53.2967
 11
88.9668
 21
-53.0438
  0
LINE
  8
0
 10
88.9668
 20
-53.0438
 11
89.1573
 21
-52.7778
  0
LINE
  8
0
 10
89.1573
 20
-52.7778
 11
89.3301
 21
-52.5
  0
LINE
  8
0
 10
89.3301
 20
-52.5
 11
89.4844
 21
-52.2114
  0
LINE
  8
0
 10
89.4844
 20
-52.2114
 11
89.6194
 21
-51.9134
  0
LINE
  8
0
 10
89.6194
 20
-51.9134
 11
89.7346
 21
-51.6072
  0
LINE
  8
0
 10
89.7346
 20
-51.6072
 11
89.8296
 21
-51.2941
  0
LINE
  8
0
 10
89.8296
 20
-51.2941
 11
89.9039
 21
-50.9754
  0
LINE
  8
0
 10
89.9039
 20
-50.9754
 11
89.9572
 21
-50.6526
  0
LINE
  8
0
 10
89.9572
 20
-50.6526
 11
89.9893
 21
-50.327
  0
LINE
  8
0
 10
89.9893
 20
-50.327
 11
90
 21
-50
  0
LINE
  8
0
 10
90
 20
-50
 11
90
 21
50
  0
LINE
  8
0
 10
90
 20
50
 11
89.9893
 21
50.327
  0
LINE
  8
0
 10
89.9893
 20
50.327
 11
89.9572
 21
50.6526
  0
LINE
  8
0
 10
89.9572
 20
50.6526
 11
89.9039
 21
50.9754
  0
LINE
  8
0
 10
89.9039
 20
50.9754
 11
89.8296
 21
51.2941
  0
LINE
  8
0
 10
89.8296
 20
51.2941
 11
89.7346
 21
51.6072
  0
LINE
  8
0
 10
89.7346
 20
51.6072
 11
89.6194
 21
51.9134
  0
LINE
  8
0
 10
89.6194
 20
51.9134
 11
89.4844
 21
52.2114
  0
LINE
  8
0
 10
89.4844
 20
52.2114
 11
89.3301
 21
52.5
  0
LINE
  8
0
 10
89.3301
 20
52.5
 11
89.1573
 21
52.7778
  0
LINE
  8
0
 10
89.1573
 20
52.7778
 11
88.9668
 21
53.0438
  0
LINE
  8
0
 10
88.9668
 20
53.0438
 11
88.7592
 21
53.2967
  0
LINE
  8
0
 10
88.7592
 20
53.2967
 11
88.5355
 21
53.5355
  0
LINE
  8
0
 10
88.5355
 20
53.5355
 11
88.2967
 21
53.7592
  0
LINE
  8
0
 10
88.2967
 20
53.7592
 11
88.0438
 21
53.9668
  0
LINE
  8
0
 10
88.0438
 20
53.9668
 11
87.7778
 21
54.1573
  0
LINE
  8
0
 10
87.7778
 20
54.1573
 11
87.5
 21
54.3301
  0
LINE
  8
0
 10
87.5
 20
54.3301
 11
87.2114
 21
54.4844
  0
LINE
  8
0
 10
87.2114
 20
54.4844
 11
86.9134
 21
54.6194
  0
LINE
  8
0
 10
86.9134
 20
54.6194
 11
86.6072
 21
54.7346
  0
LINE
  8
0
 10
86.6072
 20
54.7346
 11
86.2941
 21
54.8296
  0
LINE
  8
0
 10
86.2941
 20
54.8296
 11
85.9754
 21
54.9039
  0
LINE
  8
0
 10
85.9754
 20
54.9039
 11
85.6526
 21
54.9572
  0
LINE
  8
0
 10
85.6526
 20
54.9572
 11
85.327
 21
54.9893
  0
LINE
  8
0
 10
85.327
 20
54.9893
 11
85
 21
55
  0
LINE
  8
0
 10
85
 20
55
 11
-85
 21
55
  0
LINE
  8
0
 10
-85
 20
55
 11
-85.327
 21
54.9893
  0
LINE
  8
0
 10
-85.327
 20
54.9893
 11
-85.6526
 21
54.9572
  0
LINE
  8
0
 10
-85.6526
 20
54.9572
 11
-85.9754
 21
54.9039
  0
LINE
  8
0
 10
-85.9754
 20
54.9039
 11
-86.2941
 21
54.8296
  0
LINE
  8
0
 10
-86.2941
 20
54.8296
 11
-86.6072
 21
54.7346
  0
LINE
  8
0
 10
-86.6072
 20
54.7346
 11
-86.9134
 21
54.6194
  0
LINE
  8
0
 10
-86.9134
 20
54.6194
 11
-87.2114
 21
54.4844
  0
LINE
  8
0
 10
-87.2114
 20
54.4844
 11
-87.5
 21
54.3301
  0
LINE
  8
0
 10
-87.5
 20
54.3301
 11
-87.7778
 21
54.1573
  0
LINE
  8
0
 10
-87.7778
 20
54.1573
 11
-88.0438
 21
53.9668
  0
LINE
  8
0
 10
-88.0438
 20
53.9668
 11
-88.2967
 21
53.7592
  0
LINE
  8
0
 10
-88.2967
 20
53.7592
 11
-88.5355
 21
53.5355
  0
LINE
  8
0
 10
-88.5355
 20
53.5355
 11
-88.7592
 21
53.2967
  0
LINE
  8
0
 10
-88.7592
 20
53.2967
 11
-88.9668
 21
53.0438
  0
LINE
  8
0
 10
-88.9668
 20
53.0438
 11
-89.1573
 21
52.7778
  0
LINE
  8
0
 10
-89.1573
 20
52.7778
 11
-89.3301
 21
52.5
  0
LINE
  8
0
 10
-89.3301
 20
52.5
 11
-89.4844
 21
52.2114
  0
LINE
  8
0
 10
-89.4844
 20
52.2114
 11
-89.6194
 21
51.9134
  0
LINE
  8
0
 10
-89.6194
 20
51.9134
 11
-89.7346
 21
51.6072
  0
LINE
  8
0
 10
-89.7346
 20
51.6072
 11
-89.8296
 21
51.2941
  0
LINE
  8
0
 10
-89.8296
 20
51.2941
 11
-89.9039
 21
50.9754
  0
LINE
  8
0
 10
-89.9039
 20
50.9754
 11
-89.9572
 21
50.6526
  0
LINE
  8
0
 10
-89.9572
 20
50.6526
 11
-89.9893
 21
50.327
  0
LINE
  8
0
 10
-89.9893
 20
50.327
 11
-90
 21
50
  0
LINE
  8
0
 10
-90
 20
50
 11
-90
 21
-50
  0
LINE
  8
0
 10
-81.7
 20
-45
 11
-81.6964
 21
-44.8888
  0
LINE
  8
0
 10
-81.6964
 20
-44.8888
 11
-81.6855
 21
-44.7781
  0
LINE
  8
0
 10
-81.6855
 20
-44.7781
 11
-81.6673
 21
-44.6683
  0
LINE
  8
0
 10
-81.6673
 20
-44.6683
 11
-81.6421
 21
-44.56
  0
LINE
  8
0
 10
-81.6421
 20
-44.56
 11
-81.6098
 21
-44.4536
  0
LINE
  8
0
 10
-81.6098
 20
-44.4536
 11
-81.5706
 21
-44.3494
  0
LINE
  8
0
 10
-81.5706
 20
-44.3494
 11
-81.5247
 21
-44.2481
  0
LINE
  8
0
 10
-81.5247
 20
-44.2481
 11
-81.4722
 21
-44.15
  0
LINE
  8
0
 10
-81.4722
 20
-44.15
 11
-81.4135
 21
-44.0555
  0
LINE
  8
0
 10
-81.4135
 20
-44.0555
 11
-81.3487
 21
-43.9651
  0
LINE
  8
0
 10
-81.3487
 20
-43.9651
 11
-81.2781
 21
-43.8791
  0
LINE
  8
0
 10
-81.2781
 20
-43.8791
 11
-81.2021
 21
-43.7979
  0
LINE
  8
0
 10
-81.2021
 20
-43.7979
 11
-81.1209
 21
-43.7219
  0
LINE
  8
0
 10
-81.1209
 20
-43.7219
 11
-81.0349
 21
-43.6513
  0
LINE
  8
0
 10
-81.0349
 20
-43.6513
 11
-80.9445
 21
-43.5865
  0
LINE
  8
0
 10
-80.9445
 20
-43.5865
 11
-80.85
 21
-43.5278
  0
LINE
  8
0
 10
-80.85
 20
-43.5278
 11
-80.7519
 21
-43.4753
  0
LINE
  8
0
 10
-80.7519
 20
-43.4753
 11
-80.6506
 21
-43.4294
  0
LINE
  8
0
 10
-80.6506
 20
-43.4294
 11
-80.5464
 21
-43.3902
  0
LINE
  8
0
 10
-80.5464
 20
-43.3902
 11
-80.44
 21
-43.3579
  0
LINE
  8
0
 10
-80.44
 20
-43.3579
 11
-80.3317
 21
-43.3327
  0
LINE
  8
0
 10
-80.3317
 20
-43.3327
 11
-80.2219
 21
-43.3145
  0
LINE
  8
0
 10
-80.2219
 20
-43.3145
 11
-80.1112
 21
-43.3036
  0
LINE
  8
0
 10
-80.1112
 20
-43.3036
 11
-80
 21
-43.3
  0
LINE
  8
0
 10
-80
 20
-43.3
 11
-79.8888
 21
-43.3036
  0
LINE
  8
0
 10
-79.8888
 20
-43.3036
 11
-79.7781
 21
-43.3145
  0
LINE
  8
0
 10
-79.7781
 20
-43.3145
 11
-79.6683
 21
-43.3327
  0
LINE
  8
0
 10
-79.6683
 20
-43.3327
 11
-79.56
 21
-43.3579
  0
LINE
  8
0
 10
-79.56
 20
-43.3579
 11
-79.4536
 21
-43.3902
  0
LINE
  8
0
 10
-79.4536
 20
-43.3902
 11
-79.3494
 21
-43.4294
  0
LINE
  8
0
 10
-79.3494
 20
-43.4294
 11
-79.2481
 21
-43.4753
  0
LINE
  8
0
 10
-79.2481
 20
-43.4753
 11
-79.15
 21
-43.5278
  0
LINE
  8
0
 10
-79.15
 20
-43.5278
 11
-79.0555
 21
-43.5865
  0
LINE
  8
0
 10
-79.0555
 20
-43.5865
 11
-78.9651
 21
-43.6513
  0
LINE
  8
0
 10
-78.9651
 20
-43.6513
 11
-78.8791
 21
-43.7219
  0
LINE
  8
0
 10
-78.8791
 20
-43.7219
 11
-78.7979
 21
-43.7979
  0
LINE
  8
0
 10
-78.7979
 20
-43.7979
 11
-78.7219
 21
-43.8791
  0
LINE
  8
0
 10
-78.7219
 20
-43.8791
 11
-78.6513
 21
-43.9651
  0
LINE
  8
0
 10
-78.6513
 20
-43.9651
 11
-78.5865
 21
-44.0555
  0
LINE
  8
0
 10
-78.5865
 20
-44.0555
 11
-78.5278
 21
-44.15
  0
LINE
  8
0
 10
-78.5278
 20
-44.15
 11
-78.4753
 21
-44.2481
  0
LINE
  8
0
 10
-78.4753
 20
-44.2481
 11
-78.4294
 21
-44.3494
  0
LINE
  8
0
 10
-78.4294
 20
-44.3494
 11
-78.3902
 21
-44.4536
  0
LINE
  8
0
 10
-78.3902
 20
-44.4536
 11
-78.3579
 21
-44.56
  0
LINE
  8
0
 10
-78.3579
 20
-44.56
 11
-78.3327
 21
-44.6683
  0
LINE
  8
0
 10
-78.3327
 20
-44.6683
 11
-78.3145
 21
-44.7781
  0
LINE
  8
0
 10
-78.3145
 20
-44.7781
 11
-78.3036
 21
-44.8888
  0
LINE
  8
0
 10
-78.3036
 20
-44.8888
 11
-78.3
 21
-45
  0
LINE
  8
0
 10
-78.3
 20
-45
 11
-78.3036
 21
-45.1112
  0
LINE
  8
0
 10
-78.3036
 20
-45.1112
 11
-78.3145
 21
-45.2219
  0
LINE
  8
0
 10
-78.3145
 20
-45.2219
 11
-78.3327
 21
-45.3317
  0
LINE
  8
0
 10
-78.3327
 20
-45.3317
 11
-78.3579
 21
-45.44
  0
LINE
  8
0
 10
-78.3579
 20
-45.44
 11
-78.3902
 21
-45.5464
  0
LINE
  8
0
 10
-78.3902
 20
-45.5464
 11
-78.4294
 21
-45.6506
  0
LINE
  8
0
 10
-78.4294
 20
-45.6506
 11
-78.4753
 21
-45.7519
  0
LINE
  8
0
 10
-78.4753
 20
-45.7519
 11
-78.5278
 21
-45.85
  0
LINE
  8
0
 10
-78.5278
 20
-45.85
 11
-78.5865
 21
-45.9445
  0
LINE
  8
0
 10
-78.5865
 20
-45.9445
 11
-78.6513
 21
-46.0349
  0
LINE
  8
0
 10
-78.6513
 20
-46.0349
 11
-78.7219
 21
-46.1209
  0
LINE
  8
0
 10
-78.7219
 20
-46.1209
 11
-78.7979
 21
-46.2021
  0
LINE
  8
0
 10
-78.7979
 20
-46.2021
 11
-78.8791
 21
-46.2781
  0
LINE
  8
0
 10
-78.8791
 20
-46.2781
 11
-78.9651
 21
-46.3487
  0
LINE
  8
0
 10
-78.9651
 20
-46.3487
 11
-79.0555
 21
-46.4135
  0
LINE
  8
0
 10
-79.0555
 20
-46.4135
 11
-79.15
 21
-46.4722
  0
LINE
  8
0
 10
-79.15
 20
-46.4722
 11
-79.2481
 21
-46.5247
  0
LINE
  8
0
 10
-79.2481
 20
-46.5247
 11
-79.3494
 21
-46.5706
  0
LINE
  8
0
 10
-79.3494
 20
-46.5706
 11
-79.4536
 21
-46.6098
  0
LINE
  8
0
 10
-79.4536
 20
-46.6098
 11
-79.56
 21
-46.6421
  0
LINE
  8
0
 10
-79.56
 20
-46.6421
 11
-79.6683
 21
-46.6673
  0
LINE
  8
0
 10
-79.6683
 20
-46.6673
 11
-79.7781
 21
-46.6855
  0
LINE
  8
0
 10
-79.7781
 20
-46.6855
 11
-79.8888
 21
-46.6964
  0
LINE
  8
0
 10
-79.8888
 20
-46.6964
 11
-80
 21
-46.7
  0
LINE
  8
0
 10
-80
 20
-46.7
 11
-80.1112
 21
-46.6964
  0
LINE
  8
0
 10
-80.1112
 20
-46.6964
 11
-80.2219
 21
-46.6855
  0
LINE
  8
0
 10
-80.2219
 20
-46.6855
 11
-80.3317
 21
-46.6673
  0
LINE
  8
0
 10
-80.3317
 20
-46.6673
 11
-80.44
 21
-46.6421
  0
LINE
  8
0
 10
-80.44
 20
-46.6421
 11
-80.5464
 21
-46.6098
  0
LINE
  8
0
 10
-80.5464
 20
-46.6098
 11
-80.6506
 21
-46.5706
  0
LINE
  8
0
 10
-80.6506
 20
-46.5706
 11
-80.7519
 21
-46.5247
  0
LINE
  8
0
 10
-80.7519
 20
-46.5247
 11
-80.85
 21
-46.4722
  0
LINE
  8
0
 10
-80.85
 20
-46.4722
 11
-80.9445
 21
-46.4135
  0
LINE
  8
0
 10
-80.9445
 20
-46.4135
 11
-81.0349
 21
-46.3487
  0
LINE
  8
0
 10
-81.0349
 20
-46.3487
 11
-81.1209
 21
-46.2781
  0
LINE
  8
0
 10
-81.1209
 20
-46.2781
 11
-81.2021
 21
-46.2021
  0
LINE
  8
0
 10
-81.2021
 20
-46.2021
 11
-81.2781
 21
-46.1209
  0
LINE
  8
0
 10
-81.2781
 20
-46.1209
 11
-81.3487
 21
-46.0349
  0
LINE
  8
0
 10
-81.3487
 20
-46.0349
 11
-81.4135
 21
-45.9445
  0
LINE
  8
0
 10
-81.4135
 20
-45.9445
 11
-81.4722
 21
-45.85
  0
LINE
  8
0
 10
-81.4722
 20
-45.85
 11
-81.5247
 21
-45.7519
  0
LINE
  8
0
 10
-81.5247
 20
-45.7519
 11
-81.5706
 21
-45.6506
  0
LINE
  8
0
 10
-81.5706
 20
-45.6506
 11
-81.6098
 21
-45.5464
  0
LINE
  8
0
 10
-81.6098
 20
-45.5464
 11
-81.6421
 21
-45.44
  0
LINE
  8
0
 10
-81.6421
 20
-45.44
 11
-81.6673
 21
-45.3317
  0
LINE
  8
0
 10
-81.6673
 20
-45.3317
 11
-81.6855
 21
-45.2219
  0
LINE
  8
0
 10
-81.6855
 20
-45.2219
 11
-81.6964
 21
-45.1112
  0
LINE
  8
0
 10
-81.6964
 20
-45.1112
 11
-81.7
 21
-45
  0
LINE
  8
0
 10
-81.7
 20
45
 11
-81.6964
 21
45.1112
  0
LINE
  8
0
 10
-81.6964
 20
45.1112
 11
-81.6855
 21
45.2219
  0
LINE
  8
0
 10
-81.6855
 20
45.2219
 11
-81.6673
 21
45.3317
  0
LINE
  8
0
 10
-81.6673
 20
45.3317
 11
-81.6421
 21
45.44
  0
LINE
  8
0
 10
-81.6421
 20
45.44
 11
-81.6098
 21
45.5464
  0
LINE
  8
0
 10
-81.6098
 20
45.5464
 11
-81.5706
 21
45.6506
  0
LINE
  8
0
 10
-81.5706
 20
45.6506
 11
-81.5247
 21
45.7519
  0
LINE
  8
0
 10
-81.5247
 20
45.7519
 11
-81.4722
 21
45.85
  0
LINE
  8
0
 10
-81.4722
 20
45.85
 11
-81.4135
 21
45.9445
  0
LINE
  8
0
 10
-81.4135
 20
45.9445
 11
-81.3487
 21
46.0349
  0
LINE
  8
0
 10
-81.3487
 20
46.0349
 11
-81.2781
 21
46.1209
  0
LINE
  8
0
 10
-81.2781
 20
46.1209
 11
-81.2021
 21
46.2021
  0
LINE
  8
0
 10
-81.2021
 20
46.2021
 11
-81.1209
 21
46.2781
  0
LINE
  8
0
 10
-81.1209
 20
46.2781
 11
-81.0349
 21
46.3487
  0
LINE
  8
0
 10
-81.0349
 20
46.3487
 11
-80.9445
 21
46.4135
  0
LINE
  8
0
 10
-80.9445
 20
46.4135
 11
-80.85
 21
46.4722
  0
LINE
  8
0
 10
-80.85
 20
46.4722
 11
-80.7519
 21
46.5247
  0
LINE
  8
0
 10
-80.7519
 20
46.5247
 11
-80.6506
 21
46.5706
  0
LINE
  8
0
 10
-80.6506
 20
46.5706
 11
-80.5464
 21
46.6098
  0
LINE
  8
0
 10
-80.5464
 20
46.6098
 11
-80.44
 21
46.6421
  0
LINE
  8
0
 10
-80.44
 20
46.6421
 11
-80.3317
 21
46.6673
  0
LINE
  8
0
 10
-80.3317
 20
46.6673
 11
-80.2219
 21
46.6855
  0
LINE
  8
0
 10
-80.2219
 20
46.6855
 11
-80.1112
 21
46.6964
  0
LINE
  8
0
 10
-80.1112
 20
46.6964
 11
-80
 21
46.7
  0
LINE
  8
0
 10
-80
 20
46.7
 11
-79.8888
 21
46.6964
  0
LINE
  8
0
 10
-79.8888
 20
46.6964
 11
-79.7781
 21
46.6855
  0
LINE
  8
0
 10
-79.7781
 20
46.6855
 11
-79.6683
 21
46.6673
  0
LINE
  8
0
 10
-79.6683
 20
46.6673
 11
-79.56
 21
46.6421
  0
LINE
  8
0
 10
-79.56
 20
46.6421
 11
-79.4536
 21
46.6098
  0
LINE
  8
0
 10
-79.4536
 20
46.6098
 11
-79.3494
 21
46.5706
  0
LINE
  8
0
 10
-79.3494
 20
46.5706
 11
-79.2481
 21
46.5247
  0
LINE
  8
0
 10
-79.2481
 20
46.5247
 11
-79.15
 21
46.4722
  0
LINE
  8
0
 10
-79.15
 20
46.4722
 11
-79.0555
 21
46.4135
  0
LINE
  8
0
 10
-79.0555
 20
46.4135
 11
-78.9651
 21
46.3487
  0
LINE
  8
0
 10
-78.9651
 20
46.3487
 11
-78.8791
 21
46.2781
  0
LINE
  8
0
 10
-78.8791
 20
46.2781
 11
-78.7979
 21
46.2021
  0
LINE
  8
0
 10
-78.7979
 20
46.2021
 11
-78.7219
 21
46.1209
  0
LINE
  8
0
 10
-78.7219
 20
46.1209
 11
-78.6513
 21
46.0349
  0
LINE
  8
0
 10
-78.6513
 20
46.0349
 11
-78.5865
 21
45.9445
  0
LINE
  8
0
 10
-78.5865
 20
45.9445
 11
-78.5278
 21
45.85
  0
LINE
  8
0
 10
-78.5278
 20
45.85
 11
-78.4753
 21
45.7519
  0
LINE
  8
0
 10
-78.4753
 20
45.7519
 11
-78.4294
 21
45.6506
  0
LINE
  8
0
 10
-78.4294
 20
45.6506
 11
-78.3902
 21
45.5464
  0
LINE
  8
0
 10
-78.3902
 20
45.5464
 11
-78.3579
 21
45.44
  0
LINE
  8
0
 10
-78.3579
 20
45.44
 11
-78.3327
 21
45.3317
  0
LINE
  8
0
 10
-78.3327
 20
45.3317
 11
-78.3145
 21
45.2219
  0
LINE
  8
0
 10
-78.3145
 20
45.2219
 11
-78.3036
 21
45.1112
  0
LINE
  8
0
 10
-78.3036
 20
45.1112
 11
-78.3
 21
45
  0
LINE
  8
0
 10
-78.3
 20
45
 11
-78.3036
 21
44.8888
  0
LINE
  8
0
 10
-78.3036
 20
44.8888
 11
-78.3145
 21
44.7781
  0
LINE
  8
0
 10
-78.3145
 20
44.7781
 11
-78.3327
 21
44.6683
  0
LINE
  8
0
 10
-78.3327
 20
44.6683
 11
-78.3579
 21
44.56
  0
LINE
  8
0
 10
-78.3579
 20
44.56
 11
-78.3902
 21
44.4536
  0
LINE
  8
0
 10
-78.3902
 20
44.4536
 11
-78.4294
 21
44.3494
  0
LINE
  8
0
 10
-78.4294
 20
44.3494
 11
-78.4753
 21
44.2481
  0
LINE
  8
0
 10
-78.4753
 20
44.2481
 11
-78.5278
 21
44.15
  0
LINE
  8
0
 10
-78.5278
 20
44.15
 11
-78.5865
 21
44.0555
  0
LINE
  8
0
 10
-78.5865
 20
44.0555
 11
-78.6513
 21
43.9651
  0
LINE
  8
0
 10
-78.6513
 20
43.9651
 11
-78.7219
 21
43.8791
  0
LINE
  8
0
 10
-78.7219
 20
43.8791
 11
-78.7979
 21
43.7979
  0
LINE
  8
0
 10
-78.7979
 20
43.7979
 11
-78.8791
 21
43.7219
  0
LINE
  8
0
 10
-78.8791
 20
43.7219
 11
-78.9651
 21
43.6513
  0
LINE
  8
0
 10
-78.9651
 20
43.6513
 11
-79.0555
 21
43.5865
  0
LINE
  8
0
 10
-79.0555
 20
43.5865
 11
-79.15
 21
43.5278
  0
LINE
  8
0
 10
-79.15
 20
43.5278
 11
-79.2481
 21
43.4753
  0
LINE
  8
0
 10
-79.2481
 20
43.4753
 11
-79.3494
 21
43.4294
  0
LINE
  8
0
 10
-79.3494
 20
43.4294
 11
-79.4536
 21
43.3902
  0
LINE
  8
0
 10
-79.4536
 20
43.3902
 11
-79.56
 21
43.3579
  0
LINE
  8
0
 10
-79.56
 20
43.3579
 11
-79.6683
 21
43.3327
  0
LINE
  8
0
 10
-79.6683
 20
43.3327
 11
-79.7781
 21
43.3145
  0
LINE
  8
0
 10
-79.7781
 20
43.3145
 11
-79.8888
 21
43.3036
  0
LINE
  8
0
 10
-79.8888
 20
43.3036
 11
-80
 21
43.3
  0
LINE
  8
0
 10
-80
 20
43.3
 11
-80.1112
 21
43.3036
  0
LINE
  8
0
 10
-80.1112
 20
43.3036
 11
-80.2219
 21
43.3145
  0
LINE
  8
0
 10
-80.2219
 20
43.3145
 11
-80.3317
 21
43.3327
  0
LINE
  8
0
 10
-80.3317
 20
43.3327
 11
-80.44
 21
43.3579
  0
LINE
  8
0
 10
-80.44
 20
43.3579
 11
-80.5464
 21
43.3902
  0
LINE
  8
0
 10
-80.5464
 20
43.3902
 11
-80.6506
 21
43.4294
  0
LINE
  8
0
 10
-80.6506
 20
43.4294
 11
-80.7519
 21
43.4753
  0
LINE
  8
0
 10
-80.7519
 20
43.4753
 11
-80.85
 21
43.5278
  0
LINE
  8
0
 10
-80.85
 20
43.5278
 11
-80.9445
 21
43.5865
  0
LINE
  8
0
 10
-80.9445
 20
43.5865
 11
-81.0349
 21
43.6513
  0
LINE
  8
0
 10
-81.0349
 20
43.6513
 11
-81.1209
 21
43.7219
  0
LINE
  8
0
 10
-81.1209
 20
43.7219
 11
-81.2021
 21
43.7979
  0
LINE
  8
0
 10
-81.2021
 20
43.7979
 11
-81.2781
 21
43.8791
  0
LINE
  8
0
 10
-81.2781
 20
43.8791
 11
-81.3487
 21
43.9651
  0
LINE
  8
0
 10
-81.3487
 20
43.9651
 11
-81.4135
 21
44.0555
  0
LINE
  8
0
 10
-81.4135
 20
44.0555
 11
-81.4722
 21
44.15
  0
LINE
  8
0
 10
-81.4722
 20
44.15
 11
-81.5247
 21
44.2481
  0
LINE
  8
0
 10
-81.5247
 20
44.2481
 11
-81.5706
 21
44.3494
  0
LINE
  8
0
 10
-81.5706
 20
44.3494
 11
-81.6098
 21
44.4536
  0
LINE
  8
0
 10
-81.6098
 20
44.4536
 11
-81.6421
 21
44.56
  0
LINE
  8
0
 10
-81.6421
 20
44.56
 11
-81.6673
 21
44.6683
  0
LINE
  8
0
 10
-81.6673
 20
44.6683
 11
-81.6855
 21
44.7781
  0
LINE
  8
0
 10
-81.6855
 20
44.7781
 11
-81.6964
 21
44.8888
  0
LINE
  8
0
 10
-81.6964
 20
44.8888
 11
-81.7
 21
45
  0
LINE
  8
0
 10
1.5
 20
-39
 11
1.5
 21
-31
  0
LINE
  8
0
 10
1.5
 20
-31
 11
4.5
 21
-31
  0
LINE
  8
0
 10
4.5
 20
-31
 11
4.5
 21
-39
  0
LINE
  8
0
 10
4.5
 20
-39
 11
1.5
 21
-39
  0
LINE
  8
0
 10
1.5
 20
31
 11
1.5
 21
39
  0
LINE
  8
0
 10
1.5
 20
39
 11
4.5
 21
39
  0
LINE
  8
0
 10
4.5
 20
39
 11
4.5
 21
31
  0
LINE
  8
0
 10
4.5
 20
31
 11
1.5
 21
31
  0
LINE
  8
0
 10
65.5
 20
-39
 11
65.5
 21
-31
  0
LINE
  8
0
 10
65.5
 20
-31
 11
68.5
 21
-31
  0
LINE
  8
0
 10
68.5
 20
-31
 11
68.5
 21
-39
  0
LINE
  8
0
 10
68.5
 20
-39
 11
65.5
 21
-39
  0
LINE
  8
0
 10
65.5
 20
31
 11
65.5
 21
39
  0
LINE
  8
0
 10
65.5
 20
39
 11
68.5
 21
39
  0
LINE
  8
0
 10
68.5
 20
39
 11
68.5
 21
31
  0
LINE
  8
0
 10
68.5
 20
31
 11
65.5
 21
31
  0
LINE
  8
0
 10
78.3
 20
-45
 11
78.3036
 21
-44.8888
  0
LINE
  8
0
 10
78.3036
 20
-44.8888
 11
78.3145
 21
-44.7781
  0
LINE
  8
0
 10
78.3145
 20
-44.7781
 11
78.3327
 21
-44.6683
  0
LINE
  8
0
 10
78.3327
 20
-44.6683
 11
78.3579
 21
-44.56
  0
LINE
  8
0
 10
78.3579
 20
-44.56
 11
78.3902
 21
-44.4536
  0
LINE
  8
0
 10
78.3902
 20
-44.4536
 11
78.4294
 21
-44.3494
  0
LINE
  8
0
 10
78.4294
 20
-44.3494
 11
78.4753
 21
-44.2481
  0
LINE
  8
0
 10
78.4753
 20
-44.2481
 11
78.5278
 21
-44.15
  0
LINE
  8
0
 10
78.5278
 20
-44.15
 11
78.5865
 21
-44.0555
  0
LINE
  8
0
 10
78.5865
 20
-44.0555
 11
78.6513
 21
-43.9651
  0
LINE
  8
0
 10
78.6513
 20
-43.9651
 11
78.7219
 21
-43.8791
  0
LINE
  8
0
 10
78.7219
 20
-43.8791
 11
78.7979
 21
-43.7979
  0
LINE
  8
0
 10
78.7979
 20
-43.7979
 11
78.8791
 21
-43.7219
  0
LINE
  8
0
 10
78.8791
 20
-43.7219
 11
78.9651
 21
-43.6513
  0
LINE
  8
0
 10
78.9651
 20
-43.6513
 11
79.0555
 21
-43.5865
  0
LINE
  8
0
 10
79.0555
 20
-43.5865
 11
79.15
 21
-43.5278
  0
LINE
  8
0
 10
79.15
 20
-43.5278
 11
79.2481
 21
-43.4753
  0
LINE
  8
0
 10
79.2481
 20
-43.4753
 11
79.3494
 21
-43.4294
  0
LINE
  8
0
 10
79.3494
 20
-43.4294
 11
79.4536
 21
-43.3902
  0
LINE
  8
0
 10
79.4536
 20
-43.3902
 11
79.56
 21
-43.3579
  0
LINE
  8
0
 10
79.56
 20
-43.3579
 11
79.6683
 21
-43.3327
  0
LINE
  8
0
 10
79.6683
 20
-43.3327
 11
79.7781
 21
-43.3145
  0
LINE
  8
0
 10
79.7781
 20
-43.3145
 11
79.8888
 21
-43.3036
  0
LINE
  8
0
 10
79.8888
 20
-43.3036
 11
80
 21
-43.3
  0
LINE
  8
0
 10
80
 20
-43.3
 11
80.1112
 21
-43.3036
  0
LINE
  8
0
 10
80.1112
 20
-43.3036
 11
80.2219
 21
-43.3145
  0
LINE
  8
0
 10
80.2219
 20
-43.3145
 11
80.3317
 21
-43.3327
  0
LINE
  8
0
 10
80.3317
 20
-43.3327
 11
80.44
 21
-43.3579
  0
LINE
  8
0
 10
80.44
 20
-43.3579
 11
80.5464
 21
-43.3902
  0
LINE
  8
0
 10
80.5464
 20
-43.3902
 11
80.6506
 21
-43.4294
  0
LINE
  8
0
 10
80.6506
 20
-43.4294
 11
80.7519
 21
-43.4753
  0
LINE
  8
0
 10
80.7519
 20
-43.4753
 11
80.85
 21
-43.5278
  0
LINE
  8
0
 10
80.85
 20
-43.5278
 11
80.9445
 21
-43.5865
  0
LINE
  8
0
 10
80.9445
 20
-43.5865
 11
81.0349
 21
-43.6513
  0
LINE
  8
0
 10
81.0349
 20
-43.6513
 11
81.1209
 21
-43.7219
  0
LINE
  8
0
 10
81.1209
 20
-43.7219
 11
81.2021
 21
-43.7979
  0
LINE
  8
0
 10
81.2021
 20
-43.7979
 11
81.2781
 21
-43.8791
  0
LINE
  8
0
 10
81.2781
 20
-43.8791
 11
81.3487
 21
-43.9651
  0
LINE
  8
0
 10
81.3487
 20
-43.9651
 11
81.4135
 21
-44.0555
  0
LINE
  8
0
 10
81.4135
 20
-44.0555
 11
81.4722
 21
-44.15
  0
LINE
  8
0
 10
81.4722
 20
-44.15
 11
81.5247
 21
-44.2481
  0
LINE
  8
0
 10
81.5247
 20
-44.2481
 11
81.5706
 21
-44.3494
  0
LINE
  8
0
 10
81.5706
 20
-44.3494
 11
81.6098
 21
-44.4536
  0
LINE
  8
0
 10
81.6098
 20
-44.4536
 11
81.6421
 21
-44.56
  0
LINE
  8
0
 10
81.6421
 20
-44.56
 11
81.6673
 21
-44.6683
  0
LINE
  8
0
 10
81.6673
 20
-44.6683
 11
81.6855
 21
-44.7781
  0
LINE
  8
0
 10
81.6855
 20
-44.7781
 11
81.6964
 21
-44.8888
  0
LINE
  8
0
 10
81.6964
 20
-44.8888
 11
81.7
 21
-45
  0
LINE
  8
0
 10
81.7
 20
-45
 11
81.6964
 21
-45.1112
  0
LINE
  8
0
 10
81.6964
 20
-45.1112
 11
81.6855
 21
-45.2219
  0
LINE
  8
0
 10
81.6855
 20
-45.2219
 11
81.6673
 21
-45.3317
  0
LINE
  8
0
 10
81.6673
 20
-45.3317
 11
81.6421
 21
-45.44
  0
LINE
  8
0
 10
81.6421
 20
-45.44
 11
81.6098
 21
-45.5464
  0
LINE
  8
0
 10
81.6098
 20
-45.5464
 11
81.5706
 21
-45.6506
  0
LINE
  8
0
 10
81.5706
 20
-45.6506
 11
81.5247
 21
-45.7519
  0
LINE
  8
0
 10
81.5247
 20
-45.7519
 11
81.4722
 21
-45.85
  0
LINE
  8
0
 10
81.4722
 20
-45.85
 11
81.4135
 21
-45.9445
  0
LINE
  8
0
 10
81.4135
 20
-45.9445
 11
81.3487
 21
-46.0349
  0
LINE
  8
0
 10
81.3487
 20
-46.0349
 11
81.2781
 21
-46.1209
  0
LINE
  8
0
 10
81.2781
 20
-46.1209
 11
81.2021
 21
-46.2021
  0
LINE
  8
0
 10
81.2021
 20
-46.2021
 11
81.1209
 21
-46.2781
  0
LINE
  8
0
 10
81.1209
 20
-46.2781
 11
81.0349
 21
-46.3487
  0
LINE
  8
0
 10
81.0349
 20
-46.3487
 11
80.9445
 21
-46.4135
  0
LINE
  8
0
 10
80.9445
 20
-46.4135
 11
80.85
 21
-46.4722
  0
LINE
  8
0
 10
80.85
 20
-46.4722
 11
80.7519
 21
-46.5247
  0
LINE
  8
0
 10
80.7519
 20
-46.5247
 11
80.6506
 21
-46.5706
  0
LINE
  8
0
 10
80.6506
 20
-46.5706
 11
80.5464
 21
-46.6098
  0
LINE
  8
0
 10
80.5464
 20
-46.6098
 11
80.44
 21
-46.6421
  0
LINE
  8
0
 10
80.44
 20
-46.6421
 11
80.3317
 21
-46.6673
  0
LINE
  8
0
 10
80.3317
 20
-46.6673
 11
80.2219
 21
-46.6855
  0
LINE
  8
0
 10
80.2219
 20
-46.6855
 11
80.1112
 21
-46.6964
  0
LINE
  8
0
 10
80.1112
 20
-46.6964
 11
80
 21
-46.7
  0
LINE
  8
0
 10
80
 20
-46.7
 11
79.8888
 21
-46.6964
  0
LINE
  8
0
 10
79.8888
 20
-46.6964
 11
79.7781
 21
-46.6855
  0
LINE
  8
0
 10
79.7781
 20
-46.6855
 11
79.6683
 21
-46.6673
  0
LINE
  8
0
 10
79.6683
 20
-46.6673
 11
79.56
 21
-46.6421
  0
LINE
  8
0
 10
79.56
 20
-46.6421
 11
79.4536
 21
-46.6098
  0
LINE
  8
0
 10
79.4536
 20
-46.6098
 11
79.3494
 21
-46.5706
  0
LINE
  8
0
 10
79.3494
 20
-46.5706
 11
79.2481
 21
-46.5247
  0
LINE
  8
0
 10
79.2481
 20
-46.5247
 11
79.15
 21
-46.4722
  0
LINE
  8
0
 10
79.15
 20
-46.4722
 11
79.0555
 21
-46.4135
  0
LINE
  8
0
 10
79.0555
 20
-46.4135
 11
78.9651
 21
-46.3487
  0
LINE
  8
0
 10
78.9651
 20
-46.3487
 11
78.8791
 21
-46.2781
  0
LINE
  8
0
 10
78.8791
 20
-46.2781
 11
78.7979
 21
-46.2021
  0
LINE
  8
0
 10
78.7979
 20
-46.2021
 11
78.7219
 21
-46.1209
  0
LINE
  8
0
 10
78.7219
 20
-46.1209
 11
78.6513
 21
-46.0349
  0
LINE
  8
0
 10
78.6513
 20
-46.0349
 11
78.5865
 21
-45.9445
  0
LINE
  8
0
 10
78.5865
 20
-45.9445
 11
78.5278
 21
-45.85
  0
LINE
  8
0
 10
78.5278
 20
-45.85
 11
78.4753
 21
-45.7519
  0
LINE
  8
0
 10
78.4753
 20
-45.7519
 11
78.4294
 21
-45.6506
  0
LINE
  8
0
 10
78.4294
 20
-45.6506
 11
78.3902
 21
-45.5464
  0
LINE
  8
0
 10
78.3902
 20
-45.5464
 11
78.3579
 21
-45.44
  0
LINE
  8
0
 10
78.3579
 20
-45.44
 11
78.3327
 21
-45.3317
  0
LINE
  8
0
 10
78.3327
 20
-45.3317
 11
78.3145
 21
-45.2219
  0
LINE
  8
0
 10
78.3145
 20
-45.2219
 11
78.3036
 21
-45.1112
  0
LINE
  8
0
 10
78.3036
 20
-45.1112
 11
78.3
 21
-45
  0
LINE
  8
0
 10
78.3
 20
45
 11
78.3036
 21
45.1112
  0
LINE
  8
0
 10
78.3036
 20
45.1112
 11
78.3145
 21
45.2219
  0
LINE
  8
0
 10
78.3145
 20
45.2219
 11
78.3327
 21
45.3317
  0
LINE
  8
0
 10
78.3327
 20
45.3317
 11
78.3579
 21
45.44
  0
LINE
  8
0
 10
78.3579
 20
45.44
 11
78.3902
 21
45.5464
  0
LINE
  8
0
 10
78.3902
 20
45.5464
 11
78.4294
 21
45.6506
  0
LINE
  8
0
 10
78.4294
 20
45.6506
 11
78.4753
 21
45.7519
  0
LINE
  8
0
 10
78.4753
 20
45.7519
 11
78.5278
 21
45.85
  0
LINE
  8
0
 10
78.5278
 20
45.85
 11
78.5865
 21
45.9445
  0
LINE
  8
0
 10
78.5865
 20
45.9445
 11
78.6513
 21
46.0349
  0
LINE
  8
0
 10
78.6513
 20
46.0349
 11
78.7219
 21
46.1209
  0
LINE
  8
0
 10
78.7219
 20
46.1209
 11
78.7979
 21
46.2021
  0
LINE
  8
0
 10
78.7979
 20
46.2021
 11
78.8791
 21
46.2781
  0
LINE
  8
0
 10
78.8791
 20
46.2781
 11
78.9651
 21
46.3487
  0
LINE
  8
0
 10
78.9651
 20
46.3487
 11
79.0555
 21
46.4135
  0
LINE
  8
0
 10
79.0555
 20
46.4135
 11
79.15
 21
46.4722
  0
LINE
  8
0
 10
79.15
 20
46.4722
 11
79.2481
 21
46.5247
  0
LINE
  8
0
 10
79.2481
 20
46.5247
 11
79.3494
 21
46.5706
  0
LINE
  8
0
 10
79.3494
 20
46.5706
 11
79.4536
 21
46.6098
  0
LINE
  8
0
 10
79.4536
 20
46.6098
 11
79.56
 21
46.6421
  0
LINE
  8
0
 10
79.56
 20
46.6421
 11
79.6683
 21
46.6673
  0
LINE
  8
0
 10
79.6683
 20
46.6673
 11
79.7781
 21
46.6855
  0
LINE
  8
0
 10
79.7781
 20
46.6855
 11
79.8888
 21
46.6964
  0
LINE
  8
0
 10
79.8888
 20
46.6964
 11
80
 21
46.7
  0
LINE
  8
0
 10
80
 20
46.7
 11
80.1112
 21
46.6964
  0
LINE
  8
0
 10
80.1112
 20
46.6964
 11
80.2219
 21
46.6855
  0
LINE
  8
0
 10
80.2219
 20
46.6855
 11
80.3317
 21
46.6673
  0
LINE
  8
0
 10
80.3317
 20
46.6673
 11
80.44
 21
46.6421
  0
LINE
  8
0
 10
80.44
 20
46.6421
 11
80.5464
 21
46.6098
  0
LINE
  8
0
 10
80.5464
 20
46.6098
 11
80.6506
 21
46.5706
  0
LINE
  8
0
 10
80.6506
 20
46.5706
 11
80.7519
 21
46.5247
  0
LINE
  8
0
 10
80.7519
 20
46.5247
 11
80.85
 21
46.4722
  0
LINE
  8
0
 10
80.85
 20
46.4722
 11
80.9445
 21
46.4135
  0
LINE
  8
0
 10
80.9445
 20
46.4135
 11
81.0349
 21
46.3487
  0
LINE
  8
0
 10
81.0349
 20
46.3487
 11
81.1209
 21
46.2781
  0
LINE
  8
0
 10
81.1209
 20
46.2781
 11
81.2021
 21
46.2021
  0
LINE
  8
0
 10
81.2021
 20
46.2021
 11
81.2781
 21
46.1209
  0
LINE
  8
0
 10
81.2781
 20
46.1209
 11
81.3487
 21
46.0349
  0
LINE
  8
0
 10
81.3487
 20
46.0349
 11
81.4135
 21
45.9445
  0
LINE
  8
0
 10
81.4135
 20
45.9445
 11
81.4722
 21
45.85
  0
LINE
  8
0
 10
81.4722
 20
45.85
 11
81.5247
 21
45.7519
  0
LINE
  8
0
 10
81.5247
 20
45.7519
 11
81.5706
 21
45.6506
  0
LINE
  8
0
 10
81.5706
 20
45.6506
 11
81.6098
 21
45.5464
  0
LINE
  8
0
 10
81.6098
 20
45.5464
 11
81.6421
 21
45.44
  0
LINE
  8
0
 10
81.6421
 20
45.44
 11
81.6673
 21
45.3317
  0
LINE
  8
0
 10
81.6673
 20
45.3317
 11
81.6855
 21
45.2219
  0
LINE
  8
0
 10
81.6855
 20
45.2219
 11
81.6964
 21
45.1112
  0
LINE
  8
0
 10
81.6964
 20
45.1112
 11
81.7
 21
45
  0
LINE
  8
0
 10
81.7
 20
45
 11
81.6964
 21
44.8888
  0
LINE
  8
0
 10
81.6964
 20
44.8888
 11
81.6855
 21
44.7781
  0
LINE
  8
0
 10
81.6855
 20
44.7781
 11
81.6673
 21
44.6683
  0
LINE
  8
0
 10
81.6673
 20
44.6683
 11
81.6421
 21
44.56
  0
LINE
  8
0
 10
81.6421
 20
44.56
 11
81.6098
 21
44.4536
  0
LINE
  8
0
 10
81.6098
 20
44.4536
 11
81.5706
 21
44.3494
  0
LINE
  8
0
 10
81.5706
 20
44.3494
 11
81.5247
 21
44.2481
  0
LINE
  8
0
 10
81.5247
 20
44.2481
 11
81.4722
 21
44.15
  0
LINE
  8
0
 10
81.4722
 20
44.15
 11
81.4135
 21
44.0555
  0
LINE
  8
0
 10
81.4135
 20
44.0555
 11
81.3487
 21
43.9651
  0
LINE
  8
0
 10
81.3487
 20
43.9651
 11
81.2781
 21
43.8791
  0
LINE
  8
0
 10
81.2781
 20
43.8791
 11
81.2021
 21
43.7979
  0
LINE
  8
0
 10
81.2021
 20
43.7979
 11
81.1209
 21
43.7219
  0
LINE
  8
0
 10
81.1209
 20
43.7219
 11
81.0349
 21
43.6513
  0
LINE
  8
0
 10
81.0349
 20
43.6513
 11
80.9445
 21
43.5865
  0
LINE
  8
0
 10
80.9445
 20
43.5865
 11
80.85
 21
43.5278
  0
LINE
  8
0
 10
80.85
 20
43.5278
 11
80.7519
 21
43.4753
  0
LINE
  8
0
 10
80.7519
 20
43.4753
 11
80.6506
 21
43.4294
  0
LINE
  8
0
 10
80.6506
 20
43.4294
 11
80.5464
 21
43.3902
  0
LINE
  8
0
 10
80.5464
 20
43.3902
 11
80.44
 21
43.3579
  0
LINE
  8
0
 10
80.44
 20
43.3579
 11
80.3317
 21
43.3327
  0
LINE
  8
0
 10
80.3317
 20
43.3327
 11
80.2219
 21
43.3145
  0
LINE
  8
0
 10
80.2219
 20
43.3145
 11
80.1112
 21
43.3036
  0
LINE
  8
0
 10
80.1112
 20
43.3036
 11
80
 21
43.3
  0
LINE
  8
0
 10
80
 20
43.3
 11
79.8888
 21
43.3036
  0
LINE
  8
0
 10
79.8888
 20
43.3036
 11
79.7781
 21
43.3145
  0
LINE
  8
0
 10
79.7781
 20
43.3145
 11
79.6683
 21
43.3327
  0
LINE
  8
0
 10
79.6683
 20
43.3327
 11
79.56
 21
43.3579
  0
LINE
  8
0
 10
79.56
 20
43.3579
 11
79.4536
 21
43.3902
  0
LINE
  8
0
 10
79.4536
 20
43.3902
 11
79.3494
 21
43.4294
  0
LINE
  8
0
 10
79.3494
 20
43.4294
 11
79.2481
 21
43.4753
  0
LINE
  8
0
 10
79.2481
 20
43.4753
 11
79.15
 21
43.5278
  0
LINE
  8
0
 10
79.15
 20
43.5278
 11
79.0555
 21
43.5865
  0
LINE
  8
0
 10
79.0555
 20
43.5865
 11
78.9651
 21
43.6513
  0
LINE
  8
0
 10
78.9651
 20
43.6513
 11
78.8791
 21
43.7219
  0
LINE
  8
0
 10
78.8791
 20
43.7219
 11
78.7979
 21
43.7979
  0
LINE
  8
0
 10
78.7979
 20
43.7979
 11
78.7219
 21
43.8791
  0
LINE
  8
0
 10
78.7219
 20
43.8791
 11
78.6513
 21
43.9651
  0
LINE
  8
0
 10
78.6513
 20
43.9651
 11
78.5865
 21
44.0555
  0
LINE
  8
0
 10
78.5865
 20
44.0555
 11
78.5278
 21
44.15
  0
LINE
  8
0
 10
78.5278
 20
44.15
 11
78.4753
 21
44.2481
  0
LINE
  8
0
 10
78.4753
 20
44.2481
 11
78.4294
 21
44.3494
  0
LINE
  8
0
 10
78.4294
 20
44.3494
 11
78.3902
 21
44.4536
  0
LINE
  8
0
 10
78.3902
 20
44.4536
 11
78.3579
 21
44.56
  0
LINE
  8
0
 10
78.3579
 20
44.56
 11
78.3327
 21
44.6683
  0
LINE
  8
0
 10
78.3327
 20
44.6683
 11
78.3145
 21
44.7781
  0
LINE
  8
0
 10
78.3145
 20
44.7781
 11
78.3036
 21
44.8888
  0
LINE
  8
0
 10
78.3036
 20
44.8888
 11
78.3
 21
45
  0
ENDSEC
  0
SECTION
  2
OBJECTS
  0
DICTIONARY
  0
ENDSEC
  0
EOF
