  0
SECTION
  2
BLOCKS
  0
ENDSEC
  0
SECTION
  2
ENTITIES
  0
LINE
  8
0
 10
-90
 20
-50
 11
-89.9893
 21
-50.327
  0
LINE
  8
0
 10
-89.9893
 20
-50.327
 11
-89.9572
 21
-50.6526
  0
LINE
  8
0
 10
-89.9572
 20
-50.6526
 11
-89.9039
 21
-50.9754
  0
LINE
  8
0
 10
-89.9039
 20
-50.9754
 11
-89.8296
 21
-51.2941
  0
LINE
  8
0
 10
-89.8296
 20
-51.2941
 11
-89.7346
 21
-51.6072
  0
LINE
  8
0
 10
-89.7346
 20
-51.6072
 11
-89.6194
 21
-51.9134
  0
LINE
  8
0
 10
-89.6194
 20
-51.9134
 11
-89.4844
 21
-52.2114
  0
LINE
  8
0
 10
-89.4844
 20
-52.2114
 11
-89.3301
 21
-52.5
  0
LINE
  8
0
 10
-89.3301
 20
-52.5
 11
-89.1573
 21
-52.7778
  0
LINE
  8
0
 10
-89.1573
 20
-52.7778
 11
-88.9668
 21
-53.0438
  0
LINE
  8
0
 10
-88.9668
 20
-53.0438
 11
-88.7592
 21
-53.2967
  0
LINE
  8
0
 10
-88.7592
 20
-53.2967
 11
-88.5355
 21
-53.5355
  0
LINE
  8
0
 10
-88.5355
 20
-53.5355
 11
-88.2967
 21
-53.7592
  0
LINE
  8
0
 10
-88.2967
 20
-53.7592
 11
-88.0438
 21
-53.9668
  0
LINE
  8
0
 10
-88.0438
 20
-53.9668
 11
-87.7778
 21
-54.1573
  0
LINE
  8
0
 10
-87.7778
 20
-54.1573
 11
-87.5
 21
-54.3301
  0
LINE
  8
0
 10
-87.5
 20
-54.3301
 11
-87.2114
 21
-54.4844
  0
LINE
  8
0
 10
-87.2114
 20
-54.4844
 11
-86.9134
 21
-54.6194
  0
LINE
  8
0
 10
-86.9134
 20
-54.6194
 11
-86.6072
 21
-54.7346
  0
LINE
  8
0
 10
-86.6072
 20
-54.7346
 11
-86.2941
 21
-54.8296
  0
LINE
  8
0
 10
-86.2941
 20
-54.8296
 11
-85.9754
 21
-54.9039
  0
LINE
  8
0
 10
-85.9754
 20
-54.9039
 11
-85.6526
 21
-54.9572
  0
LINE
  8
0
 10
-85.6526
 20
-54.9572
 11
-85.327
 21
-54.9893
  0
LINE
  8
0
 10
-85.327
 20
-54.9893
 11
-85
 21
-55
  0
LINE
  8
0
 10
-85
 20
-55
 11
85
 21
-55
  0
LINE
  8
0
 10
85
 20
-55
 11
85.327
 21
-54.9893
  0
LINE
  8
0
 10
85.327
 20
-54.9893
 11
85.6526
 21
-54.9572
  0
LINE
  8
0
 10
85.6526
 20
-54.9572
 11
85.9754
 21
-54.9039
  0
LINE
  8
0
 10
85.9754
 20
-54.9039
 11
86.2941
 21
-54.8296
  0
LINE
  8
0
 10
86.2941
 20
-54.8296
 11
86.6072
 21
-54.7346
  0
LINE
  8
0
 10
86.6072
 20
-54.7346
 11
86.9134
 21
-54.6194
  0
LINE
  8
0
 10
86.9134
 20
-54.6194
 11
87.2114
 21
-54.4844
  0
LINE
  8
0
 10
87.2114
 20
-54.4844
 11
87.5
 21
-54.3301
  0
LINE
  8
0
 10
87.5
 20
-54.3301
 11
87.7778
 21
-54.1573
  0
LINE
  8
0
 10
87.7778
 20
-54.1573
 11
88.0438
 21
-53.9668
  0
LINE
  8
0
 10
88.0438
 20
-53.9668
 11
88.2967
 21
-53.7592
  0
LINE
  8
0
 10
88.2967
 20
-53.7592
 11
88.5355
 21
-53.5355
  0
LINE
  8
0
 10
88.5355
 20
-53.5355
 11
88.7592
 21
-53.2967
  0
LINE
  8
0
 10
88.7592
 20
-53.2967
 11
88.9668
 21
-53.0438
  0
LINE
  8
0
 10
88.9668
 20
-53.0438
 11
89.1573
 21
-52.7778
  0
LINE
  8
0
 10
89.1573
 20
-52.7778
 11
89.3301
 21
-52.5
  0
LINE
  8
0
 10
89.3301
 20
-52.5
 11
89.4844
 21
-52.2114
  0
LINE
  8
0
 10
89.4844
 20
-52.2114
 11
89.6194
 21
-51.9134
  0
LINE
  8
0
 10
89.6194
 20
-51.9134
 11
89.7346
 21
-51.6072
  0
LINE
  8
0
 10
89.7346
 20
-51.6072
 11
89.8296
 21
-51.2941
  0
LINE
  8
0
 10
89.8296
 20
-51.2941
 11
89.9039
 21
-50.9754
  0
LINE
  8
0
 10
89.9039
 20
-50.9754
 11
89.9572
 21
-50.6526
  0
LINE
  8
0
 10
89.9572
 20
-50.6526
 11
89.9893
 21
-50.327
  0
LINE
  8
0
 10
89.9893
 20
-50.327
 11
90
 21
-50
  0
LINE
  8
0
 10
90
 20
-50
 11
90
 21
50
  0
LINE
  8
0
 10
90
 20
50
 11
89.9893
 21
50.327
  0
LINE
  8
0
 10
89.9893
 20
50.327
 11
89.9572
 21
50.6526
  0
LINE
  8
0
 10
89.9572
 20
50.6526
 11
89.9039
 21
50.9754
  0
LINE
  8
0
 10
89.9039
 20
50.9754
 11
89.8296
 21
51.2941
  0
LINE
  8
0
 10
89.8296
 20
51.2941
 11
89.7346
 21
51.6072
  0
LINE
  8
0
 10
89.7346
 20
51.6072
 11
89.6194
 21
51.9134
  0
LINE
  8
0
 10
89.6194
 20
51.9134
 11
89.4844
 21
52.2114
  0
LINE
  8
0
 10
89.4844
 20
52.2114
 11
89.3301
 21
52.5
  0
LINE
  8
0
 10
89.3301
 20
52.5
 11
89.1573
 21
52.7778
  0
LINE
  8
0
 10
89.1573
 20
52.7778
 11
88.9668
 21
53.0438
  0
LINE
  8
0
 10
88.9668
 20
53.0438
 11
88.7592
 21
53.2967
  0
LINE
  8
0
 10
88.7592
 20
53.2967
 11
88.5355
 21
53.5355
  0
LINE
  8
0
 10
88.5355
 20
53.5355
 11
88.2967
 21
53.7592
  0
LINE
  8
0
 10
88.2967
 20
53.7592
 11
88.0438
 21
53.9668
  0
LINE
  8
0
 10
88.0438
 20
53.9668
 11
87.7778
 21
54.1573
  0
LINE
  8
0
 10
87.7778
 20
54.1573
 11
87.5
 21
54.3301
  0
LINE
  8
0
 10
87.5
 20
54.3301
 11
87.2114
 21
54.4844
  0
LINE
  8
0
 10
87.2114
 20
54.4844
 11
86.9134
 21
54.6194
  0
LINE
  8
0
 10
86.9134
 20
54.6194
 11
86.6072
 21
54.7346
  0
LINE
  8
0
 10
86.6072
 20
54.7346
 11
86.2941
 21
54.8296
  0
LINE
  8
0
 10
86.2941
 20
54.8296
 11
85.9754
 21
54.9039
  0
LINE
  8
0
 10
85.9754
 20
54.9039
 11
85.6526
 21
54.9572
  0
LINE
  8
0
 10
85.6526
 20
54.9572
 11
85.327
 21
54.9893
  0
LINE
  8
0
 10
85.327
 20
54.9893
 11
85
 21
55
  0
LINE
  8
0
 10
85
 20
55
 11
-85
 21
55
  0
LINE
  8
0
 10
-85
 20
55
 11
-85.327
 21
54.9893
  0
LINE
  8
0
 10
-85.327
 20
54.9893
 11
-85.6526
 21
54.9572
  0
LINE
  8
0
 10
-85.6526
 20
54.9572
 11
-85.9754
 21
54.9039
  0
LINE
  8
0
 10
-85.9754
 20
54.9039
 11
-86.2941
 21
54.8296
  0
LINE
  8
0
 10
-86.2941
 20
54.8296
 11
-86.6072
 21
54.7346
  0
LINE
  8
0
 10
-86.6072
 20
54.7346
 11
-86.9134
 21
54.6194
  0
LINE
  8
0
 10
-86.9134
 20
54.6194
 11
-87.2114
 21
54.4844
  0
LINE
  8
0
 10
-87.2114
 20
54.4844
 11
-87.5
 21
54.3301
  0
LINE
  8
0
 10
-87.5
 20
54.3301
 11
-87.7778
 21
54.1573
  0
LINE
  8
0
 10
-87.7778
 20
54.1573
 11
-88.0438
 21
53.9668
  0
LINE
  8
0
 10
-88.0438
 20
53.9668
 11
-88.2967
 21
53.7592
  0
LINE
  8
0
 10
-88.2967
 20
53.7592
 11
-88.5355
 21
53.5355
  0
LINE
  8
0
 10
-88.5355
 20
53.5355
 11
-88.7592
 21
53.2967
  0
LINE
  8
0
 10
-88.7592
 20
53.2967
 11
-88.9668
 21
53.0438
  0
LINE
  8
0
 10
-88.9668
 20
53.0438
 11
-89.1573
 21
52.7778
  0
LINE
  8
0
 10
-89.1573
 20
52.7778
 11
-89.3301
 21
52.5
  0
LINE
  8
0
 10
-89.3301
 20
52.5
 11
-89.4844
 21
52.2114
  0
LINE
  8
0
 10
-89.4844
 20
52.2114
 11
-89.6194
 21
51.9134
  0
LINE
  8
0
 10
-89.6194
 20
51.9134
 11
-89.7346
 21
51.6072
  0
LINE
  8
0
 10
-89.7346
 20
51.6072
 11
-89.8296
 21
51.2941
  0
LINE
  8
0
 10
-89.8296
 20
51.2941
 11
-89.9039
 21
50.9754
  0
LINE
  8
0
 10
-89.9039
 20
50.9754
 11
-89.9572
 21
50.6526
  0
LINE
  8
0
 10
-89.9572
 20
50.6526
 11
-89.9893
 21
50.327
  0
LINE
  8
0
 10
-89.9893
 20
50.327
 11
-90
 21
50
  0
LINE
  8
0
 10
-90
 20
50
 11
-90
 21
-50
  0
LINE
  8
0
 10
-81.7
 20
-45
 11
-81.6964
 21
-44.8888
  0
LINE
  8
0
 10
-81.6964
 20
-44.8888
 11
-81.6855
 21
-44.7781
  0
LINE
  8
0
 10
-81.6855
 20
-44.7781
 11
-81.6673
 21
-44.6683
  0
LINE
  8
0
 10
-81.6673
 20
-44.6683
 11
-81.6421
 21
-44.56
  0
LINE
  8
0
 10
-81.6421
 20
-44.56
 11
-81.6098
 21
-44.4536
  0
LINE
  8
0
 10
-81.6098
 20
-44.4536
 11
-81.5706
 21
-44.3494
  0
LINE
  8
0
 10
-81.5706
 20
-44.3494
 11
-81.5247
 21
-44.2481
  0
LINE
  8
0
 10
-81.5247
 20
-44.2481
 11
-81.4722
 21
-44.15
  0
LINE
  8
0
 10
-81.4722
 20
-44.15
 11
-81.4135
 21
-44.0555
  0
LINE
  8
0
 10
-81.4135
 20
-44.0555
 11
-81.3487
 21
-43.9651
  0
LINE
  8
0
 10
-81.3487
 20
-43.9651
 11
-81.2781
 21
-43.8791
  0
LINE
  8
0
 10
-81.2781
 20
-43.8791
 11
-81.2021
 21
-43.7979
  0
LINE
  8
0
 10
-81.2021
 20
-43.7979
 11
-81.1209
 21
-43.7219
  0
LINE
  8
0
 10
-81.1209
 20
-43.7219
 11
-81.0349
 21
-43.6513
  0
LINE
  8
0
 10
-81.0349
 20
-43.6513
 11
-80.9445
 21
-43.5865
  0
LINE
  8
0
 10
-80.9445
 20
-43.5865
 11
-80.85
 21
-43.5278
  0
LINE
  8
0
 10
-80.85
 20
-43.5278
 11
-80.7519
 21
-43.4753
  0
LINE
  8
0
 10
-80.7519
 20
-43.4753
 11
-80.6506
 21
-43.4294
  0
LINE
  8
0
 10
-80.6506
 20
-43.4294
 11
-80.5464
 21
-43.3902
  0
LINE
  8
0
 10
-80.5464
 20
-43.3902
 11
-80.44
 21
-43.3579
  0
LINE
  8
0
 10
-80.44
 20
-43.3579
 11
-80.3317
 21
-43.3327
  0
LINE
  8
0
 10
-80.3317
 20
-43.3327
 11
-80.2219
 21
-43.3145
  0
LINE
  8
0
 10
-80.2219
 20
-43.3145
 11
-80.1112
 21
-43.3036
  0
LINE
  8
0
 10
-80.1112
 20
-43.3036
 11
-80
 21
-43.3
  0
LINE
  8
0
 10
-80
 20
-43.3
 11
-79.8888
 21
-43.3036
  0
LINE
  8
0
 10
-79.8888
 20
-43.3036
 11
-79.7781
 21
-43.3145
  0
LINE
  8
0
 10
-79.7781
 20
-43.3145
 11
-79.6683
 21
-43.3327
  0
LINE
  8
0
 10
-79.6683
 20
-43.3327
 11
-79.56
 21
-43.3579
  0
LINE
  8
0
 10
-79.56
 20
-43.3579
 11
-79.4536
 21
-43.3902
  0
LINE
  8
0
 10
-79.4536
 20
-43.3902
 11
-79.3494
 21
-43.4294
  0
LINE
  8
0
 10
-79.3494
 20
-43.4294
 11
-79.2481
 21
-43.4753
  0
LINE
  8
0
 10
-79.2481
 20
-43.4753
 11
-79.15
 21
-43.5278
  0
LINE
  8
0
 10
-79.15
 20
-43.5278
 11
-79.0555
 21
-43.5865
  0
LINE
  8
0
 10
-79.0555
 20
-43.5865
 11
-78.9651
 21
-43.6513
  0
LINE
  8
0
 10
-78.9651
 20
-43.6513
 11
-78.8791
 21
-43.7219
  0
LINE
  8
0
 10
-78.8791
 20
-43.7219
 11
-78.7979
 21
-43.7979
  0
LINE
  8
0
 10
-78.7979
 20
-43.7979
 11
-78.7219
 21
-43.8791
  0
LINE
  8
0
 10
-78.7219
 20
-43.8791
 11
-78.6513
 21
-43.9651
  0
LINE
  8
0
 10
-78.6513
 20
-43.9651
 11
-78.5865
 21
-44.0555
  0
LINE
  8
0
 10
-78.5865
 20
-44.0555
 11
-78.5278
 21
-44.15
  0
LINE
  8
0
 10
-78.5278
 20
-44.15
 11
-78.4753
 21
-44.2481
  0
LINE
  8
0
 10
-78.4753
 20
-44.2481
 11
-78.4294
 21
-44.3494
  0
LINE
  8
0
 10
-78.4294
 20
-44.3494
 11
-78.3902
 21
-44.4536
  0
LINE
  8
0
 10
-78.3902
 20
-44.4536
 11
-78.3579
 21
-44.56
  0
LINE
  8
0
 10
-78.3579
 20
-44.56
 11
-78.3327
 21
-44.6683
  0
LINE
  8
0
 10
-78.3327
 20
-44.6683
 11
-78.3145
 21
-44.7781
  0
LINE
  8
0
 10
-78.3145
 20
-44.7781
 11
-78.3036
 21
-44.8888
  0
LINE
  8
0
 10
-78.3036
 20
-44.8888
 11
-78.3
 21
-45
  0
LINE
  8
0
 10
-78.3
 20
-45
 11
-78.3036
 21
-45.1112
  0
LINE
  8
0
 10
-78.3036
 20
-45.1112
 11
-78.3145
 21
-45.2219
  0
LINE
  8
0
 10
-78.3145
 20
-45.2219
 11
-78.3327
 21
-45.3317
  0
LINE
  8
0
 10
-78.3327
 20
-45.3317
 11
-78.3579
 21
-45.44
  0
LINE
  8
0
 10
-78.3579
 20
-45.44
 11
-78.3902
 21
-45.5464
  0
LINE
  8
0
 10
-78.3902
 20
-45.5464
 11
-78.4294
 21
-45.6506
  0
LINE
  8
0
 10
-78.4294
 20
-45.6506
 11
-78.4753
 21
-45.7519
  0
LINE
  8
0
 10
-78.4753
 20
-45.7519
 11
-78.5278
 21
-45.85
  0
LINE
  8
0
 10
-78.5278
 20
-45.85
 11
-78.5865
 21
-45.9445
  0
LINE
  8
0
 10
-78.5865
 20
-45.9445
 11
-78.6513
 21
-46.0349
  0
LINE
  8
0
 10
-78.6513
 20
-46.0349
 11
-78.7219
 21
-46.1209
  0
LINE
  8
0
 10
-78.7219
 20
-46.1209
 11
-78.7979
 21
-46.2021
  0
LINE
  8
0
 10
-78.7979
 20
-46.2021
 11
-78.8791
 21
-46.2781
  0
LINE
  8
0
 10
-78.8791
 20
-46.2781
 11
-78.9651
 21
-46.3487
  0
LINE
  8
0
 10
-78.9651
 20
-46.3487
 11
-79.0555
 21
-46.4135
  0
LINE
  8
0
 10
-79.0555
 20
-46.4135
 11
-79.15
 21
-46.4722
  0
LINE
  8
0
 10
-79.15
 20
-46.4722
 11
-79.2481
 21
-46.5247
  0
LINE
  8
0
 10
-79.2481
 20
-46.5247
 11
-79.3494
 21
-46.5706
  0
LINE
  8
0
 10
-79.3494
 20
-46.5706
 11
-79.4536
 21
-46.6098
  0
LINE
  8
0
 10
-79.4536
 20
-46.6098
 11
-79.56
 21
-46.6421
  0
LINE
  8
0
 10
-79.56
 20
-46.6421
 11
-79.6683
 21
-46.6673
  0
LINE
  8
0
 10
-79.6683
 20
-46.6673
 11
-79.7781
 21
-46.6855
  0
LINE
  8
0
 10
-79.7781
 20
-46.6855
 11
-79.8888
 21
-46.6964
  0
LINE
  8
0
 10
-79.8888
 20
-46.6964
 11
-80
 21
-46.7
  0
LINE
  8
0
 10
-80
 20
-46.7
 11
-80.1112
 21
-46.6964
  0
LINE
  8
0
 10
-80.1112
 20
-46.6964
 11
-80.2219
 21
-46.6855
  0
LINE
  8
0
 10
-80.2219
 20
-46.6855
 11
-80.3317
 21
-46.6673
  0
LINE
  8
0
 10
-80.3317
 20
-46.6673
 11
-80.44
 21
-46.6421
  0
LINE
  8
0
 10
-80.44
 20
-46.6421
 11
-80.5464
 21
-46.6098
  0
LINE
  8
0
 10
-80.5464
 20
-46.6098
 11
-80.6506
 21
-46.5706
  0
LINE
  8
0
 10
-80.6506
 20
-46.5706
 11
-80.7519
 21
-46.5247
  0
LINE
  8
0
 10
-80.7519
 20
-46.5247
 11
-80.85
 21
-46.4722
  0
LINE
  8
0
 10
-80.85
 20
-46.4722
 11
-80.9445
 21
-46.4135
  0
LINE
  8
0
 10
-80.9445
 20
-46.4135
 11
-81.0349
 21
-46.3487
  0
LINE
  8
0
 10
-81.0349
 20
-46.3487
 11
-81.1209
 21
-46.2781
  0
LINE
  8
0
 10
-81.1209
 20
-46.2781
 11
-81.2021
 21
-46.2021
  0
LINE
  8
0
 10
-81.2021
 20
-46.2021
 11
-81.2781
 21
-46.1209
  0
LINE
  8
0
 10
-81.2781
 20
-46.1209
 11
-81.3487
 21
-46.0349
  0
LINE
  8
0
 10
-81.3487
 20
-46.0349
 11
-81.4135
 21
-45.9445
  0
LINE
  8
0
 10
-81.4135
 20
-45.9445
 11
-81.4722
 21
-45.85
  0
LINE
  8
0
 10
-81.4722
 20
-45.85
 11
-81.5247
 21
-45.7519
  0
LINE
  8
0
 10
-81.5247
 20
-45.7519
 11
-81.5706
 21
-45.6506
  0
LINE
  8
0
 10
-81.5706
 20
-45.6506
 11
-81.6098
 21
-45.5464
  0
LINE
  8
0
 10
-81.6098
 20
-45.5464
 11
-81.6421
 21
-45.44
  0
LINE
  8
0
 10
-81.6421
 20
-45.44
 11
-81.6673
 21
-45.3317
  0
LINE
  8
0
 10
-81.6673
 20
-45.3317
 11
-81.6855
 21
-45.2219
  0
LINE
  8
0
 10
-81.6855
 20
-45.2219
 11
-81.6964
 21
-45.1112
  0
LINE
  8
0
 10
-81.6964
 20
-45.1112
 11
-81.7
 21
-45
  0
LINE
  8
0
 10
-81.7
 20
45
 11
-81.6964
 21
45.1112
  0
LINE
  8
0
 10
-81.6964
 20
45.1112
 11
-81.6855
 21
45.2219
  0
LINE
  8
0
 10
-81.6855
 20
45.2219
 11
-81.6673
 21
45.3317
  0
LINE
  8
0
 10
-81.6673
 20
45.3317
 11
-81.6421
 21
45.44
  0
LINE
  8
0
 10
-81.6421
 20
45.44
 11
-81.6098
 21
45.5464
  0
LINE
  8
0
 10
-81.6098
 20
45.5464
 11
-81.5706
 21
45.6506
  0
LINE
  8
0
 10
-81.5706
 20
45.6506
 11
-81.5247
 21
45.7519
  0
LINE
  8
0
 10
-81.5247
 20
45.7519
 11
-81.4722
 21
45.85
  0
LINE
  8
0
 10
-81.4722
 20
45.85
 11
-81.4135
 21
45.9445
  0
LINE
  8
0
 10
-81.4135
 20
45.9445
 11
-81.3487
 21
46.0349
  0
LINE
  8
0
 10
-81.3487
 20
46.0349
 11
-81.2781
 21
46.1209
  0
LINE
  8
0
 10
-81.2781
 20
46.1209
 11
-81.2021
 21
46.2021
  0
LINE
  8
0
 10
-81.2021
 20
46.2021
 11
-81.1209
 21
46.2781
  0
LINE
  8
0
 10
-81.1209
 20
46.2781
 11
-81.0349
 21
46.3487
  0
LINE
  8
0
 10
-81.0349
 20
46.3487
 11
-80.9445
 21
46.4135
  0
LINE
  8
0
 10
-80.9445
 20
46.4135
 11
-80.85
 21
46.4722
  0
LINE
  8
0
 10
-80.85
 20
46.4722
 11
-80.7519
 21
46.5247
  0
LINE
  8
0
 10
-80.7519
 20
46.5247
 11
-80.6506
 21
46.5706
  0
LINE
  8
0
 10
-80.6506
 20
46.5706
 11
-80.5464
 21
46.6098
  0
LINE
  8
0
 10
-80.5464
 20
46.6098
 11
-80.44
 21
46.6421
  0
LINE
  8
0
 10
-80.44
 20
46.6421
 11
-80.3317
 21
46.6673
  0
LINE
  8
0
 10
-80.3317
 20
46.6673
 11
-80.2219
 21
46.6855
  0
LINE
  8
0
 10
-80.2219
 20
46.6855
 11
-80.1112
 21
46.6964
  0
LINE
  8
0
 10
-80.1112
 20
46.6964
 11
-80
 21
46.7
  0
LINE
  8
0
 10
-80
 20
46.7
 11
-79.8888
 21
46.6964
  0
LINE
  8
0
 10
-79.8888
 20
46.6964
 11
-79.7781
 21
46.6855
  0
LINE
  8
0
 10
-79.7781
 20
46.6855
 11
-79.6683
 21
46.6673
  0
LINE
  8
0
 10
-79.6683
 20
46.6673
 11
-79.56
 21
46.6421
  0
LINE
  8
0
 10
-79.56
 20
46.6421
 11
-79.4536
 21
46.6098
  0
LINE
  8
0
 10
-79.4536
 20
46.6098
 11
-79.3494
 21
46.5706
  0
LINE
  8
0
 10
-79.3494
 20
46.5706
 11
-79.2481
 21
46.5247
  0
LINE
  8
0
 10
-79.2481
 20
46.5247
 11
-79.15
 21
46.4722
  0
LINE
  8
0
 10
-79.15
 20
46.4722
 11
-79.0555
 21
46.4135
  0
LINE
  8
0
 10
-79.0555
 20
46.4135
 11
-78.9651
 21
46.3487
  0
LINE
  8
0
 10
-78.9651
 20
46.3487
 11
-78.8791
 21
46.2781
  0
LINE
  8
0
 10
-78.8791
 20
46.2781
 11
-78.7979
 21
46.2021
  0
LINE
  8
0
 10
-78.7979
 20
46.2021
 11
-78.7219
 21
46.1209
  0
LINE
  8
0
 10
-78.7219
 20
46.1209
 11
-78.6513
 21
46.0349
  0
LINE
  8
0
 10
-78.6513
 20
46.0349
 11
-78.5865
 21
45.9445
  0
LINE
  8
0
 10
-78.5865
 20
45.9445
 11
-78.5278
 21
45.85
  0
LINE
  8
0
 10
-78.5278
 20
45.85
 11
-78.4753
 21
45.7519
  0
LINE
  8
0
 10
-78.4753
 20
45.7519
 11
-78.4294
 21
45.6506
  0
LINE
  8
0
 10
-78.4294
 20
45.6506
 11
-78.3902
 21
45.5464
  0
LINE
  8
0
 10
-78.3902
 20
45.5464
 11
-78.3579
 21
45.44
  0
LINE
  8
0
 10
-78.3579
 20
45.44
 11
-78.3327
 21
45.3317
  0
LINE
  8
0
 10
-78.3327
 20
45.3317
 11
-78.3145
 21
45.2219
  0
LINE
  8
0
 10
-78.3145
 20
45.2219
 11
-78.3036
 21
45.1112
  0
LINE
  8
0
 10
-78.3036
 20
45.1112
 11
-78.3
 21
45
  0
LINE
  8
0
 10
-78.3
 20
45
 11
-78.3036
 21
44.8888
  0
LINE
  8
0
 10
-78.3036
 20
44.8888
 11
-78.3145
 21
44.7781
  0
LINE
  8
0
 10
-78.3145
 20
44.7781
 11
-78.3327
 21
44.6683
  0
LINE
  8
0
 10
-78.3327
 20
44.6683
 11
-78.3579
 21
44.56
  0
LINE
  8
0
 10
-78.3579
 20
44.56
 11
-78.3902
 21
44.4536
  0
LINE
  8
0
 10
-78.3902
 20
44.4536
 11
-78.4294
 21
44.3494
  0
LINE
  8
0
 10
-78.4294
 20
44.3494
 11
-78.4753
 21
44.2481
  0
LINE
  8
0
 10
-78.4753
 20
44.2481
 11
-78.5278
 21
44.15
  0
LINE
  8
0
 10
-78.5278
 20
44.15
 11
-78.5865
 21
44.0555
  0
LINE
  8
0
 10
-78.5865
 20
44.0555
 11
-78.6513
 21
43.9651
  0
LINE
  8
0
 10
-78.6513
 20
43.9651
 11
-78.7219
 21
43.8791
  0
LINE
  8
0
 10
-78.7219
 20
43.8791
 11
-78.7979
 21
43.7979
  0
LINE
  8
0
 10
-78.7979
 20
43.7979
 11
-78.8791
 21
43.7219
  0
LINE
  8
0
 10
-78.8791
 20
43.7219
 11
-78.9651
 21
43.6513
  0
LINE
  8
0
 10
-78.9651
 20
43.6513
 11
-79.0555
 21
43.5865
  0
LINE
  8
0
 10
-79.0555
 20
43.5865
 11
-79.15
 21
43.5278
  0
LINE
  8
0
 10
-79.15
 20
43.5278
 11
-79.2481
 21
43.4753
  0
LINE
  8
0
 10
-79.2481
 20
43.4753
 11
-79.3494
 21
43.4294
  0
LINE
  8
0
 10
-79.3494
 20
43.4294
 11
-79.4536
 21
43.3902
  0
LINE
  8
0
 10
-79.4536
 20
43.3902
 11
-79.56
 21
43.3579
  0
LINE
  8
0
 10
-79.56
 20
43.3579
 11
-79.6683
 21
43.3327
  0
LINE
  8
0
 10
-79.6683
 20
43.3327
 11
-79.7781
 21
43.3145
  0
LINE
  8
0
 10
-79.7781
 20
43.3145
 11
-79.8888
 21
43.3036
  0
LINE
  8
0
 10
-79.8888
 20
43.3036
 11
-80
 21
43.3
  0
LINE
  8
0
 10
-80
 20
43.3
 11
-80.1112
 21
43.3036
  0
LINE
  8
0
 10
-80.1112
 20
43.3036
 11
-80.2219
 21
43.3145
  0
LINE
  8
0
 10
-80.2219
 20
43.3145
 11
-80.3317
 21
43.3327
  0
LINE
  8
0
 10
-80.3317
 20
43.3327
 11
-80.44
 21
43.3579
  0
LINE
  8
0
 10
-80.44
 20
43.3579
 11
-80.5464
 21
43.3902
  0
LINE
  8
0
 10
-80.5464
 20
43.3902
 11
-80.6506
 21
43.4294
  0
LINE
  8
0
 10
-80.6506
 20
43.4294
 11
-80.7519
 21
43.4753
  0
LINE
  8
0
 10
-80.7519
 20
43.4753
 11
-80.85
 21
43.5278
  0
LINE
  8
0
 10
-80.85
 20
43.5278
 11
-80.9445
 21
43.5865
  0
LINE
  8
0
 10
-80.9445
 20
43.5865
 11
-81.0349
 21
43.6513
  0
LINE
  8
0
 10
-81.0349
 20
43.6513
 11
-81.1209
 21
43.7219
  0
LINE
  8
0
 10
-81.1209
 20
43.7219
 11
-81.2021
 21
43.7979
  0
LINE
  8
0
 10
-81.2021
 20
43.7979
 11
-81.2781
 21
43.8791
  0
LINE
  8
0
 10
-81.2781
 20
43.8791
 11
-81.3487
 21
43.9651
  0
LINE
  8
0
 10
-81.3487
 20
43.9651
 11
-81.4135
 21
44.0555
  0
LINE
  8
0
 10
-81.4135
 20
44.0555
 11
-81.4722
 21
44.15
  0
LINE
  8
0
 10
-81.4722
 20
44.15
 11
-81.5247
 21
44.2481
  0
LINE
  8
0
 10
-81.5247
 20
44.2481
 11
-81.5706
 21
44.3494
  0
LINE
  8
0
 10
-81.5706
 20
44.3494
 11
-81.6098
 21
44.4536
  0
LINE
  8
0
 10
-81.6098
 20
44.4536
 11
-81.6421
 21
44.56
  0
LINE
  8
0
 10
-81.6421
 20
44.56
 11
-81.6673
 21
44.6683
  0
LINE
  8
0
 10
-81.6673
 20
44.6683
 11
-81.6855
 21
44.7781
  0
LINE
  8
0
 10
-81.6855
 20
44.7781
 11
-81.6964
 21
44.8888
  0
LINE
  8
0
 10
-81.6964
 20
44.8888
 11
-81.7
 21
45
  0
LINE
  8
0
 10
-65.1
 20
0
 11
-65.0677
 21
0.987587
  0
LINE
  8
0
 10
-65.0677
 20
0.987587
 11
-64.9708
 21
1.97095
  0
LINE
  8
0
 10
-64.9708
 20
1.97095
 11
-64.8099
 21
2.94586
  0
LINE
  8
0
 10
-64.8099
 20
2.94586
 11
-64.5855
 21
3.90817
  0
LINE
  8
0
 10
-64.5855
 20
3.90817
 11
-64.2986
 21
4.85374
  0
LINE
  8
0
 10
-64.2986
 20
4.85374
 11
-63.9506
 21
5.77852
  0
LINE
  8
0
 10
-63.9506
 20
5.77852
 11
-63.5428
 21
6.67856
  0
LINE
  8
0
 10
-63.5428
 20
6.67856
 11
-63.077
 21
7.55
  0
LINE
  8
0
 10
-63.077
 20
7.55
 11
-62.5552
 21
8.38911
  0
LINE
  8
0
 10
-62.5552
 20
8.38911
 11
-61.9796
 21
9.1923
  0
LINE
  8
0
 10
-61.9796
 20
9.1923
 11
-61.3528
 21
9.95612
  0
LINE
  8
0
 10
-61.3528
 20
9.95612
 11
-60.6773
 21
10.6773
  0
LINE
  8
0
 10
-60.6773
 20
10.6773
 11
-59.9561
 21
11.3528
  0
LINE
  8
0
 10
-59.9561
 20
11.3528
 11
-59.1923
 21
11.9796
  0
LINE
  8
0
 10
-59.1923
 20
11.9796
 11
-58.3891
 21
12.5552
  0
LINE
  8
0
 10
-58.3891
 20
12.5552
 11
-57.55
 21
13.077
  0
LINE
  8
0
 10
-57.55
 20
13.077
 11
-56.6786
 21
13.5428
  0
LINE
  8
0
 10
-56.6786
 20
13.5428
 11
-55.7785
 21
13.9506
  0
LINE
  8
0
 10
-55.7785
 20
13.9506
 11
-54.8537
 21
14.2986
  0
LINE
  8
0
 10
-54.8537
 20
14.2986
 11
-53.9082
 21
14.5855
  0
LINE
  8
0
 10
-53.9082
 20
14.5855
 11
-52.9459
 21
14.8099
  0
LINE
  8
0
 10
-52.9459
 20
14.8099
 11
-51.9709
 21
14.9708
  0
LINE
  8
0
 10
-51.9709
 20
14.9708
 11
-50.9876
 21
15.0677
  0
LINE
  8
0
 10
-50.9876
 20
15.0677
 11
-50
 21
15.1
  0
LINE
  8
0
 10
-50
 20
15.1
 11
-49.0124
 21
15.0677
  0
LINE
  8
0
 10
-49.0124
 20
15.0677
 11
-48.0291
 21
14.9708
  0
LINE
  8
0
 10
-48.0291
 20
14.9708
 11
-47.0541
 21
14.8099
  0
LINE
  8
0
 10
-47.0541
 20
14.8099
 11
-46.0918
 21
14.5855
  0
LINE
  8
0
 10
-46.0918
 20
14.5855
 11
-45.1463
 21
14.2986
  0
LINE
  8
0
 10
-45.1463
 20
14.2986
 11
-44.2215
 21
13.9506
  0
LINE
  8
0
 10
-44.2215
 20
13.9506
 11
-43.3214
 21
13.5428
  0
LINE
  8
0
 10
-43.3214
 20
13.5428
 11
-42.45
 21
13.077
  0
LINE
  8
0
 10
-42.45
 20
13.077
 11
-41.6109
 21
12.5552
  0
LINE
  8
0
 10
-41.6109
 20
12.5552
 11
-40.8077
 21
11.9796
  0
LINE
  8
0
 10
-40.8077
 20
11.9796
 11
-40.0439
 21
11.3528
  0
LINE
  8
0
 10
-40.0439
 20
11.3528
 11
-39.3227
 21
10.6773
  0
LINE
  8
0
 10
-39.3227
 20
10.6773
 11
-38.6472
 21
9.95612
  0
LINE
  8
0
 10
-38.6472
 20
9.95612
 11
-38.0204
 21
9.1923
  0
LINE
  8
0
 10
-38.0204
 20
9.1923
 11
-37.4448
 21
8.38911
  0
LINE
  8
0
 10
-37.4448
 20
8.38911
 11
-36.923
 21
7.55
  0
LINE
  8
0
 10
-36.923
 20
7.55
 11
-36.4572
 21
6.67856
  0
LINE
  8
0
 10
-36.4572
 20
6.67856
 11
-36.0494
 21
5.77852
  0
LINE
  8
0
 10
-36.0494
 20
5.77852
 11
-35.7014
 21
4.85374
  0
LINE
  8
0
 10
-35.7014
 20
4.85374
 11
-35.4145
 21
3.90817
  0
LINE
  8
0
 10
-35.4145
 20
3.90817
 11
-35.1901
 21
2.94586
  0
LINE
  8
0
 10
-35.1901
 20
2.94586
 11
-35.0292
 21
1.97095
  0
LINE
  8
0
 10
-35.0292
 20
1.97095
 11
-34.9323
 21
0.987587
  0
LINE
  8
0
 10
-34.9323
 20
0.987587
 11
-34.9
 21
0
  0
LINE
  8
0
 10
-34.9
 20
0
 11
-34.9323
 21
-0.987587
  0
LINE
  8
0
 10
-34.9323
 20
-0.987587
 11
-35.0292
 21
-1.97095
  0
LINE
  8
0
 10
-35.0292
 20
-1.97095
 11
-35.1901
 21
-2.94586
  0
LINE
  8
0
 10
-35.1901
 20
-2.94586
 11
-35.4145
 21
-3.90817
  0
LINE
  8
0
 10
-35.4145
 20
-3.90817
 11
-35.7014
 21
-4.85374
  0
LINE
  8
0
 10
-35.7014
 20
-4.85374
 11
-36.0494
 21
-5.77852
  0
LINE
  8
0
 10
-36.0494
 20
-5.77852
 11
-36.4572
 21
-6.67856
  0
LINE
  8
0
 10
-36.4572
 20
-6.67856
 11
-36.923
 21
-7.55
  0
LINE
  8
0
 10
-36.923
 20
-7.55
 11
-37.4448
 21
-8.38911
  0
LINE
  8
0
 10
-37.4448
 20
-8.38911
 11
-38.0204
 21
-9.1923
  0
LINE
  8
0
 10
-38.0204
 20
-9.1923
 11
-38.6472
 21
-9.95612
  0
LINE
  8
0
 10
-38.6472
 20
-9.95612
 11
-39.3227
 21
-10.6773
  0
LINE
  8
0
 10
-39.3227
 20
-10.6773
 11
-40.0439
 21
-11.3528
  0
LINE
  8
0
 10
-40.0439
 20
-11.3528
 11
-40.8077
 21
-11.9796
  0
LINE
  8
0
 10
-40.8077
 20
-11.9796
 11
-41.6109
 21
-12.5552
  0
LINE
  8
0
 10
-41.6109
 20
-12.5552
 11
-42.45
 21
-13.077
  0
LINE
  8
0
 10
-42.45
 20
-13.077
 11
-43.3214
 21
-13.5428
  0
LINE
  8
0
 10
-43.3214
 20
-13.5428
 11
-44.2215
 21
-13.9506
  0
LINE
  8
0
 10
-44.2215
 20
-13.9506
 11
-45.1463
 21
-14.2986
  0
LINE
  8
0
 10
-45.1463
 20
-14.2986
 11
-46.0918
 21
-14.5855
  0
LINE
  8
0
 10
-46.0918
 20
-14.5855
 11
-47.0541
 21
-14.8099
  0
LINE
  8
0
 10
-47.0541
 20
-14.8099
 11
-48.0291
 21
-14.9708
  0
LINE
  8
0
 10
-48.0291
 20
-14.9708
 11
-49.0124
 21
-15.0677
  0
LINE
  8
0
 10
-49.0124
 20
-15.0677
 11
-50
 21
-15.1
  0
LINE
  8
0
 10
-50
 20
-15.1
 11
-50.9876
 21
-15.0677
  0
LINE
  8
0
 10
-50.9876
 20
-15.0677
 11
-51.9709
 21
-14.9708
  0
LINE
  8
0
 10
-51.9709
 20
-14.9708
 11
-52.9459
 21
-14.8099
  0
LINE
  8
0
 10
-52.9459
 20
-14.8099
 11
-53.9082
 21
-14.5855
  0
LINE
  8
0
 10
-53.9082
 20
-14.5855
 11
-54.8537
 21
-14.2986
  0
LINE
  8
0
 10
-54.8537
 20
-14.2986
 11
-55.7785
 21
-13.9506
  0
LINE
  8
0
 10
-55.7785
 20
-13.9506
 11
-56.6786
 21
-13.5428
  0
LINE
  8
0
 10
-56.6786
 20
-13.5428
 11
-57.55
 21
-13.077
  0
LINE
  8
0
 10
-57.55
 20
-13.077
 11
-58.3891
 21
-12.5552
  0
LINE
  8
0
 10
-58.3891
 20
-12.5552
 11
-59.1923
 21
-11.9796
  0
LINE
  8
0
 10
-59.1923
 20
-11.9796
 11
-59.9561
 21
-11.3528
  0
LINE
  8
0
 10
-59.9561
 20
-11.3528
 11
-60.6773
 21
-10.6773
  0
LINE
  8
0
 10
-60.6773
 20
-10.6773
 11
-61.3528
 21
-9.95612
  0
LINE
  8
0
 10
-61.3528
 20
-9.95612
 11
-61.9796
 21
-9.1923
  0
LINE
  8
0
 10
-61.9796
 20
-9.1923
 11
-62.5552
 21
-8.38911
  0
LINE
  8
0
 10
-62.5552
 20
-8.38911
 11
-63.077
 21
-7.55
  0
LINE
  8
0
 10
-63.077
 20
-7.55
 11
-63.5428
 21
-6.67856
  0
LINE
  8
0
 10
-63.5428
 20
-6.67856
 11
-63.9506
 21
-5.77852
  0
LINE
  8
0
 10
-63.9506
 20
-5.77852
 11
-64.2986
 21
-4.85374
  0
LINE
  8
0
 10
-64.2986
 20
-4.85374
 11
-64.5855
 21
-3.90817
  0
LINE
  8
0
 10
-64.5855
 20
-3.90817
 11
-64.8099
 21
-2.94586
  0
LINE
  8
0
 10
-64.8099
 20
-2.94586
 11
-64.9708
 21
-1.97095
  0
LINE
  8
0
 10
-64.9708
 20
-1.97095
 11
-65.0677
 21
-0.987587
  0
LINE
  8
0
 10
-65.0677
 20
-0.987587
 11
-65.1
 21
0
  0
LINE
  8
0
 10
2
 20
-44
 11
2
 21
44
  0
LINE
  8
0
 10
2
 20
44
 11
2.00642
 21
44.1962
  0
LINE
  8
0
 10
2.00642
 20
44.1962
 11
2.02567
 21
44.3916
  0
LINE
  8
0
 10
2.02567
 20
44.3916
 11
2.05765
 21
44.5853
  0
LINE
  8
0
 10
2.05765
 20
44.5853
 11
2.10222
 21
44.7765
  0
LINE
  8
0
 10
2.10222
 20
44.7765
 11
2.15921
 21
44.9643
  0
LINE
  8
0
 10
2.15921
 20
44.9643
 11
2.22836
 21
45.1481
  0
LINE
  8
0
 10
2.22836
 20
45.1481
 11
2.30939
 21
45.3269
  0
LINE
  8
0
 10
2.30939
 20
45.3269
 11
2.40192
 21
45.5
  0
LINE
  8
0
 10
2.40192
 20
45.5
 11
2.50558
 21
45.6667
  0
LINE
  8
0
 10
2.50558
 20
45.6667
 11
2.61993
 21
45.8263
  0
LINE
  8
0
 10
2.61993
 20
45.8263
 11
2.74448
 21
45.978
  0
LINE
  8
0
 10
2.74448
 20
45.978
 11
2.87868
 21
46.1213
  0
LINE
  8
0
 10
2.87868
 20
46.1213
 11
3.02196
 21
46.2555
  0
LINE
  8
0
 10
3.02196
 20
46.2555
 11
3.17372
 21
46.3801
  0
LINE
  8
0
 10
3.17372
 20
46.3801
 11
3.33328
 21
46.4944
  0
LINE
  8
0
 10
3.33328
 20
46.4944
 11
3.5
 21
46.5981
  0
LINE
  8
0
 10
3.5
 20
46.5981
 11
3.67314
 21
46.6906
  0
LINE
  8
0
 10
3.67314
 20
46.6906
 11
3.85194
 21
46.7716
  0
LINE
  8
0
 10
3.85194
 20
46.7716
 11
4.03568
 21
46.8408
  0
LINE
  8
0
 10
4.03568
 20
46.8408
 11
4.22354
 21
46.8978
  0
LINE
  8
0
 10
4.22354
 20
46.8978
 11
4.41473
 21
46.9424
  0
LINE
  8
0
 10
4.41473
 20
46.9424
 11
4.60843
 21
46.9743
  0
LINE
  8
0
 10
4.60843
 20
46.9743
 11
4.80379
 21
46.9936
  0
LINE
  8
0
 10
4.80379
 20
46.9936
 11
5
 21
47
  0
LINE
  8
0
 10
5
 20
47
 11
65
 21
47
  0
LINE
  8
0
 10
65
 20
47
 11
65.1962
 21
46.9936
  0
LINE
  8
0
 10
65.1962
 20
46.9936
 11
65.3916
 21
46.9743
  0
LINE
  8
0
 10
65.3916
 20
46.9743
 11
65.5853
 21
46.9424
  0
LINE
  8
0
 10
65.5853
 20
46.9424
 11
65.7765
 21
46.8978
  0
LINE
  8
0
 10
65.7765
 20
46.8978
 11
65.9643
 21
46.8408
  0
LINE
  8
0
 10
65.9643
 20
46.8408
 11
66.1481
 21
46.7716
  0
LINE
  8
0
 10
66.1481
 20
46.7716
 11
66.3269
 21
46.6906
  0
LINE
  8
0
 10
66.3269
 20
46.6906
 11
66.5
 21
46.5981
  0
LINE
  8
0
 10
66.5
 20
46.5981
 11
66.6667
 21
46.4944
  0
LINE
  8
0
 10
66.6667
 20
46.4944
 11
66.8263
 21
46.3801
  0
LINE
  8
0
 10
66.8263
 20
46.3801
 11
66.978
 21
46.2555
  0
LINE
  8
0
 10
66.978
 20
46.2555
 11
67.1213
 21
46.1213
  0
LINE
  8
0
 10
67.1213
 20
46.1213
 11
67.2555
 21
45.978
  0
LINE
  8
0
 10
67.2555
 20
45.978
 11
67.3801
 21
45.8263
  0
LINE
  8
0
 10
67.3801
 20
45.8263
 11
67.4944
 21
45.6667
  0
LINE
  8
0
 10
67.4944
 20
45.6667
 11
67.5981
 21
45.5
  0
LINE
  8
0
 10
67.5981
 20
45.5
 11
67.6906
 21
45.3269
  0
LINE
  8
0
 10
67.6906
 20
45.3269
 11
67.7716
 21
45.1481
  0
LINE
  8
0
 10
67.7716
 20
45.1481
 11
67.8408
 21
44.9643
  0
LINE
  8
0
 10
67.8408
 20
44.9643
 11
67.8978
 21
44.7765
  0
LINE
  8
0
 10
67.8978
 20
44.7765
 11
67.9424
 21
44.5853
  0
LINE
  8
0
 10
67.9424
 20
44.5853
 11
67.9743
 21
44.3916
  0
LINE
  8
0
 10
67.9743
 20
44.3916
 11
67.9936
 21
44.1962
  0
LINE
  8
0
 10
67.9936
 20
44.1962
 11
68
 21
44
  0
LINE
  8
0
 10
68
 20
44
 11
68
 21
-44
  0
LINE
  8
0
 10
68
 20
-44
 11
67.9936
 21
-44.1962
  0
LINE
  8
0
 10
67.9936
 20
-44.1962
 11
67.9743
 21
-44.3916
  0
LINE
  8
0
 10
67.9743
 20
-44.3916
 11
67.9424
 21
-44.5853
  0
LINE
  8
0
 10
67.9424
 20
-44.5853
 11
67.8978
 21
-44.7765
  0
LINE
  8
0
 10
67.8978
 20
-44.7765
 11
67.8408
 21
-44.9643
  0
LINE
  8
0
 10
67.8408
 20
-44.9643
 11
67.7716
 21
-45.1481
  0
LINE
  8
0
 10
67.7716
 20
-45.1481
 11
67.6906
 21
-45.3269
  0
LINE
  8
0
 10
67.6906
 20
-45.3269
 11
67.5981
 21
-45.5
  0
LINE
  8
0
 10
67.5981
 20
-45.5
 11
67.4944
 21
-45.6667
  0
LINE
  8
0
 10
67.4944
 20
-45.6667
 11
67.3801
 21
-45.8263
  0
LINE
  8
0
 10
67.3801
 20
-45.8263
 11
67.2555
 21
-45.978
  0
LINE
  8
0
 10
67.2555
 20
-45.978
 11
67.1213
 21
-46.1213
  0
LINE
  8
0
 10
67.1213
 20
-46.1213
 11
66.978
 21
-46.2555
  0
LINE
  8
0
 10
66.978
 20
-46.2555
 11
66.8263
 21
-46.3801
  0
LINE
  8
0
 10
66.8263
 20
-46.3801
 11
66.6667
 21
-46.4944
  0
LINE
  8
0
 10
66.6667
 20
-46.4944
 11
66.5
 21
-46.5981
  0
LINE
  8
0
 10
66.5
 20
-46.5981
 11
66.3269
 21
-46.6906
  0
LINE
  8
0
 10
66.3269
 20
-46.6906
 11
66.1481
 21
-46.7716
  0
LINE
  8
0
 10
66.1481
 20
-46.7716
 11
65.9643
 21
-46.8408
  0
LINE
  8
0
 10
65.9643
 20
-46.8408
 11
65.7765
 21
-46.8978
  0
LINE
  8
0
 10
65.7765
 20
-46.8978
 11
65.5853
 21
-46.9424
  0
LINE
  8
0
 10
65.5853
 20
-46.9424
 11
65.3916
 21
-46.9743
  0
LINE
  8
0
 10
65.3916
 20
-46.9743
 11
65.1962
 21
-46.9936
  0
LINE
  8
0
 10
65.1962
 20
-46.9936
 11
65
 21
-47
  0
LINE
  8
0
 10
65
 20
-47
 11
5
 21
-47
  0
LINE
  8
0
 10
5
 20
-47
 11
4.80379
 21
-46.9936
  0
LINE
  8
0
 10
4.80379
 20
-46.9936
 11
4.60843
 21
-46.9743
  0
LINE
  8
0
 10
4.60843
 20
-46.9743
 11
4.41473
 21
-46.9424
  0
LINE
  8
0
 10
4.41473
 20
-46.9424
 11
4.22354
 21
-46.8978
  0
LINE
  8
0
 10
4.22354
 20
-46.8978
 11
4.03568
 21
-46.8408
  0
LINE
  8
0
 10
4.03568
 20
-46.8408
 11
3.85194
 21
-46.7716
  0
LINE
  8
0
 10
3.85194
 20
-46.7716
 11
3.67314
 21
-46.6906
  0
LINE
  8
0
 10
3.67314
 20
-46.6906
 11
3.5
 21
-46.5981
  0
LINE
  8
0
 10
3.5
 20
-46.5981
 11
3.33328
 21
-46.4944
  0
LINE
  8
0
 10
3.33328
 20
-46.4944
 11
3.17372
 21
-46.3801
  0
LINE
  8
0
 10
3.17372
 20
-46.3801
 11
3.02196
 21
-46.2555
  0
LINE
  8
0
 10
3.02196
 20
-46.2555
 11
2.87868
 21
-46.1213
  0
LINE
  8
0
 10
2.87868
 20
-46.1213
 11
2.74448
 21
-45.978
  0
LINE
  8
0
 10
2.74448
 20
-45.978
 11
2.61993
 21
-45.8263
  0
LINE
  8
0
 10
2.61993
 20
-45.8263
 11
2.50558
 21
-45.6667
  0
LINE
  8
0
 10
2.50558
 20
-45.6667
 11
2.40192
 21
-45.5
  0
LINE
  8
0
 10
2.40192
 20
-45.5
 11
2.30939
 21
-45.3269
  0
LINE
  8
0
 10
2.30939
 20
-45.3269
 11
2.22836
 21
-45.1481
  0
LINE
  8
0
 10
2.22836
 20
-45.1481
 11
2.15921
 21
-44.9643
  0
LINE
  8
0
 10
2.15921
 20
-44.9643
 11
2.10222
 21
-44.7765
  0
LINE
  8
0
 10
2.10222
 20
-44.7765
 11
2.05765
 21
-44.5853
  0
LINE
  8
0
 10
2.05765
 20
-44.5853
 11
2.02567
 21
-44.3916
  0
LINE
  8
0
 10
2.02567
 20
-44.3916
 11
2.00642
 21
-44.1962
  0
LINE
  8
0
 10
2.00642
 20
-44.1962
 11
2
 21
-44
  0
LINE
  8
0
 10
78.3
 20
-45
 11
78.3036
 21
-44.8888
  0
LINE
  8
0
 10
78.3036
 20
-44.8888
 11
78.3145
 21
-44.7781
  0
LINE
  8
0
 10
78.3145
 20
-44.7781
 11
78.3327
 21
-44.6683
  0
LINE
  8
0
 10
78.3327
 20
-44.6683
 11
78.3579
 21
-44.56
  0
LINE
  8
0
 10
78.3579
 20
-44.56
 11
78.3902
 21
-44.4536
  0
LINE
  8
0
 10
78.3902
 20
-44.4536
 11
78.4294
 21
-44.3494
  0
LINE
  8
0
 10
78.4294
 20
-44.3494
 11
78.4753
 21
-44.2481
  0
LINE
  8
0
 10
78.4753
 20
-44.2481
 11
78.5278
 21
-44.15
  0
LINE
  8
0
 10
78.5278
 20
-44.15
 11
78.5865
 21
-44.0555
  0
LINE
  8
0
 10
78.5865
 20
-44.0555
 11
78.6513
 21
-43.9651
  0
LINE
  8
0
 10
78.6513
 20
-43.9651
 11
78.7219
 21
-43.8791
  0
LINE
  8
0
 10
78.7219
 20
-43.8791
 11
78.7979
 21
-43.7979
  0
LINE
  8
0
 10
78.7979
 20
-43.7979
 11
78.8791
 21
-43.7219
  0
LINE
  8
0
 10
78.8791
 20
-43.7219
 11
78.9651
 21
-43.6513
  0
LINE
  8
0
 10
78.9651
 20
-43.6513
 11
79.0555
 21
-43.5865
  0
LINE
  8
0
 10
79.0555
 20
-43.5865
 11
79.15
 21
-43.5278
  0
LINE
  8
0
 10
79.15
 20
-43.5278
 11
79.2481
 21
-43.4753
  0
LINE
  8
0
 10
79.2481
 20
-43.4753
 11
79.3494
 21
-43.4294
  0
LINE
  8
0
 10
79.3494
 20
-43.4294
 11
79.4536
 21
-43.3902
  0
LINE
  8
0
 10
79.4536
 20
-43.3902
 11
79.56
 21
-43.3579
  0
LINE
  8
0
 10
79.56
 20
-43.3579
 11
79.6683
 21
-43.3327
  0
LINE
  8
0
 10
79.6683
 20
-43.3327
 11
79.7781
 21
-43.3145
  0
LINE
  8
0
 10
79.7781
 20
-43.3145
 11
79.8888
 21
-43.3036
  0
LINE
  8
0
 10
79.8888
 20
-43.3036
 11
80
 21
-43.3
  0
LINE
  8
0
 10
80
 20
-43.3
 11
80.1112
 21
-43.3036
  0
LINE
  8
0
 10
80.1112
 20
-43.3036
 11
80.2219
 21
-43.3145
  0
LINE
  8
0
 10
80.2219
 20
-43.3145
 11
80.3317
 21
-43.3327
  0
LINE
  8
0
 10
80.3317
 20
-43.3327
 11
80.44
 21
-43.3579
  0
LINE
  8
0
 10
80.44
 20
-43.3579
 11
80.5464
 21
-43.3902
  0
LINE
  8
0
 10
80.5464
 20
-43.3902
 11
80.6506
 21
-43.4294
  0
LINE
  8
0
 10
80.6506
 20
-43.4294
 11
80.7519
 21
-43.4753
  0
LINE
  8
0
 10
80.7519
 20
-43.4753
 11
80.85
 21
-43.5278
  0
LINE
  8
0
 10
80.85
 20
-43.5278
 11
80.9445
 21
-43.5865
  0
LINE
  8
0
 10
80.9445
 20
-43.5865
 11
81.0349
 21
-43.6513
  0
LINE
  8
0
 10
81.0349
 20
-43.6513
 11
81.1209
 21
-43.7219
  0
LINE
  8
0
 10
81.1209
 20
-43.7219
 11
81.2021
 21
-43.7979
  0
LINE
  8
0
 10
81.2021
 20
-43.7979
 11
81.2781
 21
-43.8791
  0
LINE
  8
0
 10
81.2781
 20
-43.8791
 11
81.3487
 21
-43.9651
  0
LINE
  8
0
 10
81.3487
 20
-43.9651
 11
81.4135
 21
-44.0555
  0
LINE
  8
0
 10
81.4135
 20
-44.0555
 11
81.4722
 21
-44.15
  0
LINE
  8
0
 10
81.4722
 20
-44.15
 11
81.5247
 21
-44.2481
  0
LINE
  8
0
 10
81.5247
 20
-44.2481
 11
81.5706
 21
-44.3494
  0
LINE
  8
0
 10
81.5706
 20
-44.3494
 11
81.6098
 21
-44.4536
  0
LINE
  8
0
 10
81.6098
 20
-44.4536
 11
81.6421
 21
-44.56
  0
LINE
  8
0
 10
81.6421
 20
-44.56
 11
81.6673
 21
-44.6683
  0
LINE
  8
0
 10
81.6673
 20
-44.6683
 11
81.6855
 21
-44.7781
  0
LINE
  8
0
 10
81.6855
 20
-44.7781
 11
81.6964
 21
-44.8888
  0
LINE
  8
0
 10
81.6964
 20
-44.8888
 11
81.7
 21
-45
  0
LINE
  8
0
 10
81.7
 20
-45
 11
81.6964
 21
-45.1112
  0
LINE
  8
0
 10
81.6964
 20
-45.1112
 11
81.6855
 21
-45.2219
  0
LINE
  8
0
 10
81.6855
 20
-45.2219
 11
81.6673
 21
-45.3317
  0
LINE
  8
0
 10
81.6673
 20
-45.3317
 11
81.6421
 21
-45.44
  0
LINE
  8
0
 10
81.6421
 20
-45.44
 11
81.6098
 21
-45.5464
  0
LINE
  8
0
 10
81.6098
 20
-45.5464
 11
81.5706
 21
-45.6506
  0
LINE
  8
0
 10
81.5706
 20
-45.6506
 11
81.5247
 21
-45.7519
  0
LINE
  8
0
 10
81.5247
 20
-45.7519
 11
81.4722
 21
-45.85
  0
LINE
  8
0
 10
81.4722
 20
-45.85
 11
81.4135
 21
-45.9445
  0
LINE
  8
0
 10
81.4135
 20
-45.9445
 11
81.3487
 21
-46.0349
  0
LINE
  8
0
 10
81.3487
 20
-46.0349
 11
81.2781
 21
-46.1209
  0
LINE
  8
0
 10
81.2781
 20
-46.1209
 11
81.2021
 21
-46.2021
  0
LINE
  8
0
 10
81.2021
 20
-46.2021
 11
81.1209
 21
-46.2781
  0
LINE
  8
0
 10
81.1209
 20
-46.2781
 11
81.0349
 21
-46.3487
  0
LINE
  8
0
 10
81.0349
 20
-46.3487
 11
80.9445
 21
-46.4135
  0
LINE
  8
0
 10
80.9445
 20
-46.4135
 11
80.85
 21
-46.4722
  0
LINE
  8
0
 10
80.85
 20
-46.4722
 11
80.7519
 21
-46.5247
  0
LINE
  8
0
 10
80.7519
 20
-46.5247
 11
80.6506
 21
-46.5706
  0
LINE
  8
0
 10
80.6506
 20
-46.5706
 11
80.5464
 21
-46.6098
  0
LINE
  8
0
 10
80.5464
 20
-46.6098
 11
80.44
 21
-46.6421
  0
LINE
  8
0
 10
80.44
 20
-46.6421
 11
80.3317
 21
-46.6673
  0
LINE
  8
0
 10
80.3317
 20
-46.6673
 11
80.2219
 21
-46.6855
  0
LINE
  8
0
 10
80.2219
 20
-46.6855
 11
80.1112
 21
-46.6964
  0
LINE
  8
0
 10
80.1112
 20
-46.6964
 11
80
 21
-46.7
  0
LINE
  8
0
 10
80
 20
-46.7
 11
79.8888
 21
-46.6964
  0
LINE
  8
0
 10
79.8888
 20
-46.6964
 11
79.7781
 21
-46.6855
  0
LINE
  8
0
 10
79.7781
 20
-46.6855
 11
79.6683
 21
-46.6673
  0
LINE
  8
0
 10
79.6683
 20
-46.6673
 11
79.56
 21
-46.6421
  0
LINE
  8
0
 10
79.56
 20
-46.6421
 11
79.4536
 21
-46.6098
  0
LINE
  8
0
 10
79.4536
 20
-46.6098
 11
79.3494
 21
-46.5706
  0
LINE
  8
0
 10
79.3494
 20
-46.5706
 11
79.2481
 21
-46.5247
  0
LINE
  8
0
 10
79.2481
 20
-46.5247
 11
79.15
 21
-46.4722
  0
LINE
  8
0
 10
79.15
 20
-46.4722
 11
79.0555
 21
-46.4135
  0
LINE
  8
0
 10
79.0555
 20
-46.4135
 11
78.9651
 21
-46.3487
  0
LINE
  8
0
 10
78.9651
 20
-46.3487
 11
78.8791
 21
-46.2781
  0
LINE
  8
0
 10
78.8791
 20
-46.2781
 11
78.7979
 21
-46.2021
  0
LINE
  8
0
 10
78.7979
 20
-46.2021
 11
78.7219
 21
-46.1209
  0
LINE
  8
0
 10
78.7219
 20
-46.1209
 11
78.6513
 21
-46.0349
  0
LINE
  8
0
 10
78.6513
 20
-46.0349
 11
78.5865
 21
-45.9445
  0
LINE
  8
0
 10
78.5865
 20
-45.9445
 11
78.5278
 21
-45.85
  0
LINE
  8
0
 10
78.5278
 20
-45.85
 11
78.4753
 21
-45.7519
  0
LINE
  8
0
 10
78.4753
 20
-45.7519
 11
78.4294
 21
-45.6506
  0
LINE
  8
0
 10
78.4294
 20
-45.6506
 11
78.3902
 21
-45.5464
  0
LINE
  8
0
 10
78.3902
 20
-45.5464
 11
78.3579
 21
-45.44
  0
LINE
  8
0
 10
78.3579
 20
-45.44
 11
78.3327
 21
-45.3317
  0
LINE
  8
0
 10
78.3327
 20
-45.3317
 11
78.3145
 21
-45.2219
  0
LINE
  8
0
 10
78.3145
 20
-45.2219
 11
78.3036
 21
-45.1112
  0
LINE
  8
0
 10
78.3036
 20
-45.1112
 11
78.3
 21
-45
  0
LINE
  8
0
 10
78.3
 20
45
 11
78.3036
 21
45.1112
  0
LINE
  8
0
 10
78.3036
 20
45.1112
 11
78.3145
 21
45.2219
  0
LINE
  8
0
 10
78.3145
 20
45.2219
 11
78.3327
 21
45.3317
  0
LINE
  8
0
 10
78.3327
 20
45.3317
 11
78.3579
 21
45.44
  0
LINE
  8
0
 10
78.3579
 20
45.44
 11
78.3902
 21
45.5464
  0
LINE
  8
0
 10
78.3902
 20
45.5464
 11
78.4294
 21
45.6506
  0
LINE
  8
0
 10
78.4294
 20
45.6506
 11
78.4753
 21
45.7519
  0
LINE
  8
0
 10
78.4753
 20
45.7519
 11
78.5278
 21
45.85
  0
LINE
  8
0
 10
78.5278
 20
45.85
 11
78.5865
 21
45.9445
  0
LINE
  8
0
 10
78.5865
 20
45.9445
 11
78.6513
 21
46.0349
  0
LINE
  8
0
 10
78.6513
 20
46.0349
 11
78.7219
 21
46.1209
  0
LINE
  8
0
 10
78.7219
 20
46.1209
 11
78.7979
 21
46.2021
  0
LINE
  8
0
 10
78.7979
 20
46.2021
 11
78.8791
 21
46.2781
  0
LINE
  8
0
 10
78.8791
 20
46.2781
 11
78.9651
 21
46.3487
  0
LINE
  8
0
 10
78.9651
 20
46.3487
 11
79.0555
 21
46.4135
  0
LINE
  8
0
 10
79.0555
 20
46.4135
 11
79.15
 21
46.4722
  0
LINE
  8
0
 10
79.15
 20
46.4722
 11
79.2481
 21
46.5247
  0
LINE
  8
0
 10
79.2481
 20
46.5247
 11
79.3494
 21
46.5706
  0
LINE
  8
0
 10
79.3494
 20
46.5706
 11
79.4536
 21
46.6098
  0
LINE
  8
0
 10
79.4536
 20
46.6098
 11
79.56
 21
46.6421
  0
LINE
  8
0
 10
79.56
 20
46.6421
 11
79.6683
 21
46.6673
  0
LINE
  8
0
 10
79.6683
 20
46.6673
 11
79.7781
 21
46.6855
  0
LINE
  8
0
 10
79.7781
 20
46.6855
 11
79.8888
 21
46.6964
  0
LINE
  8
0
 10
79.8888
 20
46.6964
 11
80
 21
46.7
  0
LINE
  8
0
 10
80
 20
46.7
 11
80.1112
 21
46.6964
  0
LINE
  8
0
 10
80.1112
 20
46.6964
 11
80.2219
 21
46.6855
  0
LINE
  8
0
 10
80.2219
 20
46.6855
 11
80.3317
 21
46.6673
  0
LINE
  8
0
 10
80.3317
 20
46.6673
 11
80.44
 21
46.6421
  0
LINE
  8
0
 10
80.44
 20
46.6421
 11
80.5464
 21
46.6098
  0
LINE
  8
0
 10
80.5464
 20
46.6098
 11
80.6506
 21
46.5706
  0
LINE
  8
0
 10
80.6506
 20
46.5706
 11
80.7519
 21
46.5247
  0
LINE
  8
0
 10
80.7519
 20
46.5247
 11
80.85
 21
46.4722
  0
LINE
  8
0
 10
80.85
 20
46.4722
 11
80.9445
 21
46.4135
  0
LINE
  8
0
 10
80.9445
 20
46.4135
 11
81.0349
 21
46.3487
  0
LINE
  8
0
 10
81.0349
 20
46.3487
 11
81.1209
 21
46.2781
  0
LINE
  8
0
 10
81.1209
 20
46.2781
 11
81.2021
 21
46.2021
  0
LINE
  8
0
 10
81.2021
 20
46.2021
 11
81.2781
 21
46.1209
  0
LINE
  8
0
 10
81.2781
 20
46.1209
 11
81.3487
 21
46.0349
  0
LINE
  8
0
 10
81.3487
 20
46.0349
 11
81.4135
 21
45.9445
  0
LINE
  8
0
 10
81.4135
 20
45.9445
 11
81.4722
 21
45.85
  0
LINE
  8
0
 10
81.4722
 20
45.85
 11
81.5247
 21
45.7519
  0
LINE
  8
0
 10
81.5247
 20
45.7519
 11
81.5706
 21
45.6506
  0
LINE
  8
0
 10
81.5706
 20
45.6506
 11
81.6098
 21
45.5464
  0
LINE
  8
0
 10
81.6098
 20
45.5464
 11
81.6421
 21
45.44
  0
LINE
  8
0
 10
81.6421
 20
45.44
 11
81.6673
 21
45.3317
  0
LINE
  8
0
 10
81.6673
 20
45.3317
 11
81.6855
 21
45.2219
  0
LINE
  8
0
 10
81.6855
 20
45.2219
 11
81.6964
 21
45.1112
  0
LINE
  8
0
 10
81.6964
 20
45.1112
 11
81.7
 21
45
  0
LINE
  8
0
 10
81.7
 20
45
 11
81.6964
 21
44.8888
  0
LINE
  8
0
 10
81.6964
 20
44.8888
 11
81.6855
 21
44.7781
  0
LINE
  8
0
 10
81.6855
 20
44.7781
 11
81.6673
 21
44.6683
  0
LINE
  8
0
 10
81.6673
 20
44.6683
 11
81.6421
 21
44.56
  0
LINE
  8
0
 10
81.6421
 20
44.56
 11
81.6098
 21
44.4536
  0
LINE
  8
0
 10
81.6098
 20
44.4536
 11
81.5706
 21
44.3494
  0
LINE
  8
0
 10
81.5706
 20
44.3494
 11
81.5247
 21
44.2481
  0
LINE
  8
0
 10
81.5247
 20
44.2481
 11
81.4722
 21
44.15
  0
LINE
  8
0
 10
81.4722
 20
44.15
 11
81.4135
 21
44.0555
  0
LINE
  8
0
 10
81.4135
 20
44.0555
 11
81.3487
 21
43.9651
  0
LINE
  8
0
 10
81.3487
 20
43.9651
 11
81.2781
 21
43.8791
  0
LINE
  8
0
 10
81.2781
 20
43.8791
 11
81.2021
 21
43.7979
  0
LINE
  8
0
 10
81.2021
 20
43.7979
 11
81.1209
 21
43.7219
  0
LINE
  8
0
 10
81.1209
 20
43.7219
 11
81.0349
 21
43.6513
  0
LINE
  8
0
 10
81.0349
 20
43.6513
 11
80.9445
 21
43.5865
  0
LINE
  8
0
 10
80.9445
 20
43.5865
 11
80.85
 21
43.5278
  0
LINE
  8
0
 10
80.85
 20
43.5278
 11
80.7519
 21
43.4753
  0
LINE
  8
0
 10
80.7519
 20
43.4753
 11
80.6506
 21
43.4294
  0
LINE
  8
0
 10
80.6506
 20
43.4294
 11
80.5464
 21
43.3902
  0
LINE
  8
0
 10
80.5464
 20
43.3902
 11
80.44
 21
43.3579
  0
LINE
  8
0
 10
80.44
 20
43.3579
 11
80.3317
 21
43.3327
  0
LINE
  8
0
 10
80.3317
 20
43.3327
 11
80.2219
 21
43.3145
  0
LINE
  8
0
 10
80.2219
 20
43.3145
 11
80.1112
 21
43.3036
  0
LINE
  8
0
 10
80.1112
 20
43.3036
 11
80
 21
43.3
  0
LINE
  8
0
 10
80
 20
43.3
 11
79.8888
 21
43.3036
  0
LINE
  8
0
 10
79.8888
 20
43.3036
 11
79.7781
 21
43.3145
  0
LINE
  8
0
 10
79.7781
 20
43.3145
 11
79.6683
 21
43.3327
  0
LINE
  8
0
 10
79.6683
 20
43.3327
 11
79.56
 21
43.3579
  0
LINE
  8
0
 10
79.56
 20
43.3579
 11
79.4536
 21
43.3902
  0
LINE
  8
0
 10
79.4536
 20
43.3902
 11
79.3494
 21
43.4294
  0
LINE
  8
0
 10
79.3494
 20
43.4294
 11
79.2481
 21
43.4753
  0
LINE
  8
0
 10
79.2481
 20
43.4753
 11
79.15
 21
43.5278
  0
LINE
  8
0
 10
79.15
 20
43.5278
 11
79.0555
 21
43.5865
  0
LINE
  8
0
 10
79.0555
 20
43.5865
 11
78.9651
 21
43.6513
  0
LINE
  8
0
 10
78.9651
 20
43.6513
 11
78.8791
 21
43.7219
  0
LINE
  8
0
 10
78.8791
 20
43.7219
 11
78.7979
 21
43.7979
  0
LINE
  8
0
 10
78.7979
 20
43.7979
 11
78.7219
 21
43.8791
  0
LINE
  8
0
 10
78.7219
 20
43.8791
 11
78.6513
 21
43.9651
  0
LINE
  8
0
 10
78.6513
 20
43.9651
 11
78.5865
 21
44.0555
  0
LINE
  8
0
 10
78.5865
 20
44.0555
 11
78.5278
 21
44.15
  0
LINE
  8
0
 10
78.5278
 20
44.15
 11
78.4753
 21
44.2481
  0
LINE
  8
0
 10
78.4753
 20
44.2481
 11
78.4294
 21
44.3494
  0
LINE
  8
0
 10
78.4294
 20
44.3494
 11
78.3902
 21
44.4536
  0
LINE
  8
0
 10
78.3902
 20
44.4536
 11
78.3579
 21
44.56
  0
LINE
  8
0
 10
78.3579
 20
44.56
 11
78.3327
 21
44.6683
  0
LINE
  8
0
 10
78.3327
 20
44.6683
 11
78.3145
 21
44.7781
  0
LINE
  8
0
 10
78.3145
 20
44.7781
 11
78.3036
 21
44.8888
  0
LINE
  8
0
 10
78.3036
 20
44.8888
 11
78.3
 21
45
  0
ENDSEC
  0
SECTION
  2
OBJECTS
  0
DICTIONARY
  0
ENDSEC
  0
EOF
