  0
SECTION
  2
BLOCKS
  0
ENDSEC
  0
SECTION
  2
ENTITIES
  0
LINE
  8
0
 10
-31
 20
0
 11
-31.0407
 21
1.24266
  0
LINE
  8
0
 10
-31.0407
 20
1.24266
 11
-31.1625
 21
2.48
  0
LINE
  8
0
 10
-31.1625
 20
2.48
 11
-31.3651
 21
3.70672
  0
LINE
  8
0
 10
-31.3651
 20
3.70672
 11
-31.6474
 21
4.91756
  0
LINE
  8
0
 10
-31.6474
 20
4.91756
 11
-32.0083
 21
6.10735
  0
LINE
  8
0
 10
-32.0083
 20
6.10735
 11
-32.4463
 21
7.27099
  0
LINE
  8
0
 10
-32.4463
 20
7.27099
 11
-32.9594
 21
8.40349
  0
LINE
  8
0
 10
-32.9594
 20
8.40349
 11
-33.5455
 21
9.5
  0
LINE
  8
0
 10
-33.5455
 20
9.5
 11
-34.2021
 21
10.5558
  0
LINE
  8
0
 10
-34.2021
 20
10.5558
 11
-34.9263
 21
11.5665
  0
LINE
  8
0
 10
-34.9263
 20
11.5665
 11
-35.715
 21
12.5276
  0
LINE
  8
0
 10
-35.715
 20
12.5276
 11
-36.565
 21
13.435
  0
LINE
  8
0
 10
-36.565
 20
13.435
 11
-37.4724
 21
14.285
  0
LINE
  8
0
 10
-37.4724
 20
14.285
 11
-38.4335
 21
15.0737
  0
LINE
  8
0
 10
-38.4335
 20
15.0737
 11
-39.4442
 21
15.7979
  0
LINE
  8
0
 10
-39.4442
 20
15.7979
 11
-40.5
 21
16.4545
  0
LINE
  8
0
 10
-40.5
 20
16.4545
 11
-41.5965
 21
17.0406
  0
LINE
  8
0
 10
-41.5965
 20
17.0406
 11
-42.729
 21
17.5537
  0
LINE
  8
0
 10
-42.729
 20
17.5537
 11
-43.8927
 21
17.9917
  0
LINE
  8
0
 10
-43.8927
 20
17.9917
 11
-45.0824
 21
18.3526
  0
LINE
  8
0
 10
-45.0824
 20
18.3526
 11
-46.2933
 21
18.6349
  0
LINE
  8
0
 10
-46.2933
 20
18.6349
 11
-47.52
 21
18.8375
  0
LINE
  8
0
 10
-47.52
 20
18.8375
 11
-48.7573
 21
18.9593
  0
LINE
  8
0
 10
-48.7573
 20
18.9593
 11
-50
 21
19
  0
LINE
  8
0
 10
-50
 20
19
 11
-51.2427
 21
18.9593
  0
LINE
  8
0
 10
-51.2427
 20
18.9593
 11
-52.48
 21
18.8375
  0
LINE
  8
0
 10
-52.48
 20
18.8375
 11
-53.7067
 21
18.6349
  0
LINE
  8
0
 10
-53.7067
 20
18.6349
 11
-54.9176
 21
18.3526
  0
LINE
  8
0
 10
-54.9176
 20
18.3526
 11
-56.1073
 21
17.9917
  0
LINE
  8
0
 10
-56.1073
 20
17.9917
 11
-57.271
 21
17.5537
  0
LINE
  8
0
 10
-57.271
 20
17.5537
 11
-58.4035
 21
17.0406
  0
LINE
  8
0
 10
-58.4035
 20
17.0406
 11
-59.5
 21
16.4545
  0
LINE
  8
0
 10
-59.5
 20
16.4545
 11
-60.5558
 21
15.7979
  0
LINE
  8
0
 10
-60.5558
 20
15.7979
 11
-61.5665
 21
15.0737
  0
LINE
  8
0
 10
-61.5665
 20
15.0737
 11
-62.5276
 21
14.285
  0
LINE
  8
0
 10
-62.5276
 20
14.285
 11
-63.435
 21
13.435
  0
LINE
  8
0
 10
-63.435
 20
13.435
 11
-64.285
 21
12.5276
  0
LINE
  8
0
 10
-64.285
 20
12.5276
 11
-65.0737
 21
11.5665
  0
LINE
  8
0
 10
-65.0737
 20
11.5665
 11
-65.7979
 21
10.5558
  0
LINE
  8
0
 10
-65.7979
 20
10.5558
 11
-66.4545
 21
9.5
  0
LINE
  8
0
 10
-66.4545
 20
9.5
 11
-67.0406
 21
8.40349
  0
LINE
  8
0
 10
-67.0406
 20
8.40349
 11
-67.5537
 21
7.27099
  0
LINE
  8
0
 10
-67.5537
 20
7.27099
 11
-67.9917
 21
6.10735
  0
LINE
  8
0
 10
-67.9917
 20
6.10735
 11
-68.3526
 21
4.91756
  0
LINE
  8
0
 10
-68.3526
 20
4.91756
 11
-68.6349
 21
3.70672
  0
LINE
  8
0
 10
-68.6349
 20
3.70672
 11
-68.8375
 21
2.48
  0
LINE
  8
0
 10
-68.8375
 20
2.48
 11
-68.9593
 21
1.24266
  0
LINE
  8
0
 10
-68.9593
 20
1.24266
 11
-69
 21
0
  0
LINE
  8
0
 10
-69
 20
0
 11
-68.9593
 21
-1.24266
  0
LINE
  8
0
 10
-68.9593
 20
-1.24266
 11
-68.8375
 21
-2.48
  0
LINE
  8
0
 10
-68.8375
 20
-2.48
 11
-68.6349
 21
-3.70672
  0
LINE
  8
0
 10
-68.6349
 20
-3.70672
 11
-68.3526
 21
-4.91756
  0
LINE
  8
0
 10
-68.3526
 20
-4.91756
 11
-67.9917
 21
-6.10735
  0
LINE
  8
0
 10
-67.9917
 20
-6.10735
 11
-67.5537
 21
-7.27099
  0
LINE
  8
0
 10
-67.5537
 20
-7.27099
 11
-67.0406
 21
-8.40349
  0
LINE
  8
0
 10
-67.0406
 20
-8.40349
 11
-66.4545
 21
-9.5
  0
LINE
  8
0
 10
-66.4545
 20
-9.5
 11
-65.7979
 21
-10.5558
  0
LINE
  8
0
 10
-65.7979
 20
-10.5558
 11
-65.0737
 21
-11.5665
  0
LINE
  8
0
 10
-65.0737
 20
-11.5665
 11
-64.285
 21
-12.5276
  0
LINE
  8
0
 10
-64.285
 20
-12.5276
 11
-63.435
 21
-13.435
  0
LINE
  8
0
 10
-63.435
 20
-13.435
 11
-62.5276
 21
-14.285
  0
LINE
  8
0
 10
-62.5276
 20
-14.285
 11
-61.5665
 21
-15.0737
  0
LINE
  8
0
 10
-61.5665
 20
-15.0737
 11
-60.5558
 21
-15.7979
  0
LINE
  8
0
 10
-60.5558
 20
-15.7979
 11
-59.5
 21
-16.4545
  0
LINE
  8
0
 10
-59.5
 20
-16.4545
 11
-58.4035
 21
-17.0406
  0
LINE
  8
0
 10
-58.4035
 20
-17.0406
 11
-57.271
 21
-17.5537
  0
LINE
  8
0
 10
-57.271
 20
-17.5537
 11
-56.1073
 21
-17.9917
  0
LINE
  8
0
 10
-56.1073
 20
-17.9917
 11
-54.9176
 21
-18.3526
  0
LINE
  8
0
 10
-54.9176
 20
-18.3526
 11
-53.7067
 21
-18.6349
  0
LINE
  8
0
 10
-53.7067
 20
-18.6349
 11
-52.48
 21
-18.8375
  0
LINE
  8
0
 10
-52.48
 20
-18.8375
 11
-51.2427
 21
-18.9593
  0
LINE
  8
0
 10
-51.2427
 20
-18.9593
 11
-50
 21
-19
  0
LINE
  8
0
 10
-50
 20
-19
 11
-48.7573
 21
-18.9593
  0
LINE
  8
0
 10
-48.7573
 20
-18.9593
 11
-47.52
 21
-18.8375
  0
LINE
  8
0
 10
-47.52
 20
-18.8375
 11
-46.2933
 21
-18.6349
  0
LINE
  8
0
 10
-46.2933
 20
-18.6349
 11
-45.0824
 21
-18.3526
  0
LINE
  8
0
 10
-45.0824
 20
-18.3526
 11
-43.8927
 21
-17.9917
  0
LINE
  8
0
 10
-43.8927
 20
-17.9917
 11
-42.729
 21
-17.5537
  0
LINE
  8
0
 10
-42.729
 20
-17.5537
 11
-41.5965
 21
-17.0406
  0
LINE
  8
0
 10
-41.5965
 20
-17.0406
 11
-40.5
 21
-16.4545
  0
LINE
  8
0
 10
-40.5
 20
-16.4545
 11
-39.4442
 21
-15.7979
  0
LINE
  8
0
 10
-39.4442
 20
-15.7979
 11
-38.4335
 21
-15.0737
  0
LINE
  8
0
 10
-38.4335
 20
-15.0737
 11
-37.4724
 21
-14.285
  0
LINE
  8
0
 10
-37.4724
 20
-14.285
 11
-36.565
 21
-13.435
  0
LINE
  8
0
 10
-36.565
 20
-13.435
 11
-35.715
 21
-12.5276
  0
LINE
  8
0
 10
-35.715
 20
-12.5276
 11
-34.9263
 21
-11.5665
  0
LINE
  8
0
 10
-34.9263
 20
-11.5665
 11
-34.2021
 21
-10.5558
  0
LINE
  8
0
 10
-34.2021
 20
-10.5558
 11
-33.5455
 21
-9.5
  0
LINE
  8
0
 10
-33.5455
 20
-9.5
 11
-32.9594
 21
-8.40349
  0
LINE
  8
0
 10
-32.9594
 20
-8.40349
 11
-32.4463
 21
-7.27099
  0
LINE
  8
0
 10
-32.4463
 20
-7.27099
 11
-32.0083
 21
-6.10735
  0
LINE
  8
0
 10
-32.0083
 20
-6.10735
 11
-31.6474
 21
-4.91756
  0
LINE
  8
0
 10
-31.6474
 20
-4.91756
 11
-31.3651
 21
-3.70672
  0
LINE
  8
0
 10
-31.3651
 20
-3.70672
 11
-31.1625
 21
-2.48
  0
LINE
  8
0
 10
-31.1625
 20
-2.48
 11
-31.0407
 21
-1.24266
  0
LINE
  8
0
 10
-31.0407
 20
-1.24266
 11
-31
 21
0
  0
ENDSEC
  0
SECTION
  2
OBJECTS
  0
DICTIONARY
  0
ENDSEC
  0
EOF
